<?xml version="1.0" encoding="UTF-8" standalone="no"?>
<!-- Created with Inkscape (http://www.inkscape.org/) -->

<svg
   width="191.87628mm"
   height="67.701027mm"
   viewBox="0 0 191.87628 67.701027"
   version="1.1"
   id="svg5"
   sodipodi:docname="font_header.svg"
   inkscape:version="1.1 (c68e22c387, 2021-05-23)"
   xmlns:inkscape="http://www.inkscape.org/namespaces/inkscape"
   xmlns:sodipodi="http://sodipodi.sourceforge.net/DTD/sodipodi-0.dtd"
   xmlns:xlink="http://www.w3.org/1999/xlink"
   xmlns="http://www.w3.org/2000/svg"
   xmlns:svg="http://www.w3.org/2000/svg">
  <sodipodi:namedview
     id="namedview7"
     pagecolor="#ffffff"
     bordercolor="#666666"
     borderopacity="1.0"
     inkscape:pageshadow="2"
     inkscape:pageopacity="0.0"
     inkscape:pagecheckerboard="0"
     inkscape:document-units="mm"
     showgrid="false"
     inkscape:zoom="0.77771465"
     inkscape:cx="320.81175"
     inkscape:cy="301.52447"
     inkscape:window-width="3440"
     inkscape:window-height="1377"
     inkscape:window-x="-8"
     inkscape:window-y="-8"
     inkscape:window-maximized="1"
     inkscape:current-layer="layer1"
     fit-margin-top="0"
     fit-margin-left="0"
     fit-margin-right="0"
     fit-margin-bottom="0" />
  <defs
     id="defs2">
    <linearGradient
       inkscape:collect="always"
       id="linearGradient896">
      <stop
         style="stop-color:#999999;stop-opacity:1;"
         offset="0"
         id="stop892" />
      <stop
         style="stop-color:#ffffff;stop-opacity:0"
         offset="1"
         id="stop894" />
    </linearGradient>
    <linearGradient
       inkscape:collect="always"
       xlink:href="#linearGradient896"
       id="linearGradient898"
       x1="102.74227"
       y1="192.04639"
       x2="102.74227"
       y2="68.551537"
       gradientUnits="userSpaceOnUse" />
  </defs>
  <g
     inkscape:label="Layer 1"
     inkscape:groupmode="layer"
     id="layer1"
     transform="translate(-9.8659792,-68.721649)">
    <rect
       style="fill:url(#linearGradient898);fill-opacity:1;stroke:none;stroke-width:1.065"
       id="rect868"
       width="191.87628"
       height="67.701027"
       x="9.8659792"
       y="68.721649" />
    <g
       id="g1147"
       transform="translate(-20.670811,-0.77967987)">
      <g
         id="g1388"
         transform="translate(-1.0206186,-1.7010309)">
        <path
           style="fill:#d0d0d0;fill-opacity:1;stroke-width:0.00717444"
           d="m 69.787137,110.17708 c 0,-0.0116 6.835737,-0.01 6.847302,0.002 0.0048,0.005 -1.140015,0.007 -3.420071,0.007 -2.737002,0 -3.427231,-0.002 -3.427231,-0.009 z m 3.112362,-8.76309 c 0.0052,-0.002 0.01137,-0.002 0.01375,5.6e-4 0.0024,0.002 -0.0019,0.004 -0.0094,0.004 -0.0084,-3.4e-4 -0.01006,-0.002 -0.0043,-0.004 z m -0.201332,-0.007 c 0.0049,-0.002 0.013,-0.002 0.01794,0 0.0049,0.002 8.96e-4,0.004 -0.009,0.004 -0.0099,0 -0.0139,-0.002 -0.009,-0.004 z m 0.376794,-2.2e-4 c 0.007,-0.002 0.01667,-0.002 0.02152,2.7e-4 0.0049,0.002 -8.53e-4,0.003 -0.01269,0.003 -0.01184,-1.4e-4 -0.01581,-0.002 -0.0088,-0.004 z m -0.455265,-0.007 c 0.0052,-0.002 0.01137,-0.002 0.01375,5.6e-4 0.0024,0.002 -0.0019,0.004 -0.0094,0.004 -0.0084,-3.4e-4 -0.01006,-0.002 -0.0043,-0.004 z m 0.552432,0 c 0.0052,-0.002 0.01137,-0.002 0.01375,5.6e-4 0.0024,0.002 -0.0019,0.004 -0.0094,0.004 -0.0084,-3.4e-4 -0.01006,-0.002 -0.0043,-0.004 z m -0.624176,-0.007 c 0.0052,-0.002 0.01137,-0.002 0.01375,5.7e-4 0.0024,0.002 -0.0019,0.004 -0.0094,0.004 -0.0084,-3.5e-4 -0.01006,-0.002 -0.0043,-0.004 z m 2.182375,-0.66503 c 0,-10e-4 0.0057,-0.007 0.01255,-0.0126 0.01138,-0.009 0.01163,-0.009 0.0027,0.003 -0.0094,0.0119 -0.01526,0.0157 -0.01526,0.01 z m 0.100442,-0.0941 c 0.01339,-0.0138 0.02595,-0.0251 0.02792,-0.0251 0.002,0 -0.0074,0.0113 -0.02075,0.0251 -0.01339,0.0138 -0.02595,0.0251 -0.02793,0.0251 -0.002,0 0.0074,-0.0113 0.02075,-0.0251 z m 0.06457,-0.0632 c 0,-0.001 0.01049,-0.0117 0.02332,-0.0233 l 0.02332,-0.0211 -0.02107,0.0233 c -0.01964,0.0217 -0.02556,0.0266 -0.02556,0.0211 z m 0.09327,-0.10091 c 0,-0.001 0.0057,-0.007 0.01255,-0.0126 0.01138,-0.009 0.01163,-0.009 0.0027,0.003 -0.0094,0.0119 -0.01526,0.0157 -0.01526,0.01 z m 0.696487,-1.622897 c 3.44e-4,-0.0084 0.002,-0.01006 0.0043,-0.0043 0.0021,0.0052 0.0018,0.01137 -5.66e-4,0.01375 -0.0024,0.0024 -0.0041,-0.0019 -0.0038,-0.0094 z m -5.581715,-0.02152 c 3.44e-4,-0.0084 0.002,-0.01006 0.0043,-0.0043 0.0021,0.0052 0.0018,0.01137 -5.66e-4,0.01375 -0.0024,0.0024 -0.0041,-0.0019 -0.0038,-0.0094 z m 5.589456,-0.07473 c 0,-0.0099 0.0016,-0.0139 0.0036,-0.009 0.002,0.0049 0.002,0.013 0,0.01794 -0.002,0.0049 -0.0036,8.96e-4 -0.0036,-0.009 z m -5.595532,-0.05022 c 0,-0.01381 0.0015,-0.01946 0.0033,-0.01256 0.0018,0.0069 0.0018,0.0182 0,0.02511 -0.0018,0.0069 -0.0033,0.0013 -0.0033,-0.01256 z m 0,-0.200884 c 0,-0.01381 0.0015,-0.01946 0.0033,-0.01256 0.0018,0.0069 0.0018,0.01821 0,0.02511 -0.0018,0.0069 -0.0033,0.0013 -0.0033,-0.01255 z m 5.595797,-0.05381 c 1.44e-4,-0.01184 0.0018,-0.01581 0.0036,-0.0088 0.0018,0.007 0.0017,0.01667 -2.66e-4,0.02152 -0.002,0.0049 -0.0035,-8.54e-4 -0.0033,-0.01269 z m -5.589155,-0.07533 c 0,-0.0099 0.0016,-0.0139 0.0036,-0.009 0.002,0.0049 0.002,0.013 0,0.01794 -0.002,0.0049 -0.0036,8.97e-4 -0.0036,-0.009 z m 5.581149,-0.02571 c 3.44e-4,-0.0084 0.002,-0.01006 0.0043,-0.0043 0.0021,0.0052 0.0018,0.01137 -5.66e-4,0.01375 -0.0024,0.0024 -0.0041,-0.0019 -0.0038,-0.0094 z m -5.57454,-0.05022 c 3.44e-4,-0.0084 0.002,-0.01006 0.0043,-0.0043 0.0021,0.0052 0.0018,0.01137 -5.66e-4,0.01375 -0.0024,0.0024 -0.0041,-0.0019 -0.0038,-0.0094 z m 0.688179,-1.562552 c 0,-0.0015 0.0057,-0.0071 0.01256,-0.01255 0.01138,-0.0089 0.01163,-0.0087 0.0027,0.0027 -0.0094,0.01195 -0.01526,0.01575 -0.01526,0.0098 z m 4.124761,-0.07442 -0.01739,-0.01973 0.01973,0.01739 c 0.01085,0.0096 0.01973,0.01844 0.01973,0.01973 0,0.0056 -0.0058,0.001 -0.02207,-0.01739 z m -3.995621,-0.06278 c 0.02143,-0.0217 0.04058,-0.03946 0.04256,-0.03946 0.002,0 -0.01395,0.01776 -0.03538,0.03946 -0.02143,0.0217 -0.04058,0.03946 -0.04256,0.03946 -0.002,0 0.01395,-0.01776 0.03538,-0.03946 z m 3.877104,-0.0556 -0.01367,-0.01614 0.01614,0.01367 c 0.01517,0.01284 0.01941,0.01862 0.01367,0.01862 -0.0014,0 -0.0086,-0.0073 -0.01614,-0.01614 z m -3.769487,-0.04396 c 0,-0.0015 0.0057,-0.0071 0.01256,-0.01256 0.01138,-0.0089 0.01163,-0.0087 0.0027,0.0027 -0.0094,0.01195 -0.01526,0.01575 -0.01526,0.0098 z m 3.693921,-0.0242 c -0.0089,-0.01138 -0.0087,-0.01163 0.0027,-0.0027 0.01195,0.0094 0.01575,0.01526 0.0098,0.01526 -0.0015,0 -0.0071,-0.0057 -0.01256,-0.01256 z m -2.181459,-0.666743 c 0.0052,-0.0021 0.01137,-0.0018 0.01375,5.67e-4 0.0024,0.0024 -0.0019,0.0041 -0.0094,0.0038 -0.0084,-3.44e-4 -0.01006,-0.002 -0.0043,-0.0043 z m 0.05739,-0.0072 c 0.0052,-0.0021 0.01137,-0.0018 0.01375,5.66e-4 0.0024,0.0024 -0.0019,0.0041 -0.0094,0.0038 -0.0084,-3.44e-4 -0.01006,-0.002 -0.0043,-0.0043 z m 0.566781,0 c 0.0052,-0.0021 0.01137,-0.0018 0.01375,5.66e-4 0.0024,0.0024 -0.0019,0.0041 -0.0094,0.0038 -0.0084,-3.44e-4 -0.01006,-0.002 -0.0043,-0.0043 z m -0.477412,-0.0072 c 0.007,-0.0018 0.01667,-0.0017 0.02152,2.66e-4 0.0049,0.002 -8.54e-4,0.0035 -0.01269,0.0033 -0.01184,-1.47e-4 -0.01581,-0.0018 -0.0088,-0.0036 z m 0.398045,2.21e-4 c 0.0049,-0.002 0.013,-0.002 0.01794,0 0.0049,0.002 8.97e-4,0.0036 -0.009,0.0036 -0.0099,0 -0.0139,-0.0016 -0.009,-0.0036 z"
           id="path1161" />
        <path
           style="fill:#b9b9b9;fill-opacity:1;stroke-width:0.00717444"
           d="m 78.812584,110.17889 c 0,-0.01 5.550562,-0.01 5.556585,-7e-5 0.0026,0.004 -1.046959,0.007 -2.776213,0.007 -1.903854,2.4e-4 -2.780372,-0.002 -2.780372,-0.007 z m 5.626555,-0.005 c 0.0069,-0.002 0.01821,-0.002 0.02511,0 0.0069,0.002 0.0013,0.003 -0.01255,0.003 -0.01381,0 -0.01946,-0.001 -0.01256,-0.003 z m 2.74243,-1.09992 c 0.0071,-0.008 0.0146,-0.0143 0.01657,-0.0143 0.002,0 -0.0023,0.006 -0.0094,0.0143 -0.0071,0.008 -0.0146,0.0143 -0.01657,0.0143 -0.002,0 0.0023,-0.006 0.0094,-0.0143 z m 0.172186,-0.17218 c 0.0071,-0.008 0.0146,-0.0144 0.01657,-0.0144 0.002,0 -0.0023,0.006 -0.0094,0.0144 -0.0071,0.008 -0.0146,0.0143 -0.01657,0.0143 -0.002,0 0.0023,-0.006 0.0094,-0.0143 z m 1.087494,-2.4148 c 3.44e-4,-0.008 0.002,-0.0101 0.0043,-0.004 0.0021,0.005 0.0018,0.0114 -5.67e-4,0.0138 -0.0024,0.002 -0.0041,-0.002 -0.0038,-0.009 z m 0.01492,-0.21822 c 0,-0.01 0.0016,-0.0139 0.0036,-0.009 0.002,0.005 0.002,0.013 0,0.0179 -0.002,0.005 -0.0036,8.9e-4 -0.0036,-0.009 z m -5.67e-4,-0.32704 c 3.44e-4,-0.008 0.002,-0.0101 0.0043,-0.004 0.0021,0.005 0.0018,0.0114 -5.67e-4,0.0138 -0.0024,0.002 -0.0041,-0.002 -0.0038,-0.009 z m -0.0072,-0.13631 c 3.45e-4,-0.008 0.002,-0.0101 0.0043,-0.004 0.0021,0.005 0.0018,0.0114 -5.67e-4,0.0138 -0.0024,0.002 -0.0041,-0.002 -0.0038,-0.009 z m -1.141845,-2.54095 -0.01739,-0.0197 0.01973,0.0174 c 0.01844,0.0162 0.02302,0.0221 0.01739,0.0221 -0.0013,0 -0.01016,-0.009 -0.01973,-0.0197 z m -0.08959,-0.0897 -0.02107,-0.0233 0.02332,0.0211 c 0.02174,0.0196 0.02662,0.0256 0.02107,0.0256 -0.0012,0 -0.01173,-0.0105 -0.02332,-0.0233 z m -2.594903,-1.12934 c 0.0049,-0.002 0.013,-0.002 0.01794,0 0.0049,0.002 8.97e-4,0.004 -0.009,0.004 -0.0099,0 -0.0139,-0.002 -0.009,-0.004 z m -0.157998,-0.008 c 0.01274,-0.002 0.03534,-0.002 0.05022,-6e-5 0.01489,0.002 0.0045,0.003 -0.02316,0.003 -0.02762,3e-5 -0.0398,-10e-4 -0.02706,-0.003 z m 0.16876,-0.007 c 0.0069,-0.002 0.01821,-0.002 0.02511,0 0.0069,0.002 0.0013,0.003 -0.01256,0.003 -0.01381,0 -0.01946,-10e-4 -0.01256,-0.003 z m 0.07906,-0.007 c 0.007,-0.002 0.01667,-0.002 0.02152,2.7e-4 0.0049,0.002 -8.54e-4,0.003 -0.01269,0.003 -0.01184,-1.5e-4 -0.01581,-0.002 -0.0088,-0.004 z m 0.07564,-0.007 c 0.0052,-0.002 0.01137,-0.002 0.01375,5.7e-4 0.0024,0.002 -0.0019,0.004 -0.0094,0.004 -0.0084,-3.4e-4 -0.01006,-0.002 -0.0043,-0.004 z m 0.05022,-0.007 c 0.0052,-0.002 0.01137,-0.002 0.01375,5.7e-4 0.0024,0.002 -0.0019,0.004 -0.0094,0.004 -0.0084,-3.5e-4 -0.01006,-0.002 -0.0043,-0.004 z m 0.09327,-0.0143 c 0.0052,-0.002 0.01137,-0.002 0.01375,5.6e-4 0.0024,0.002 -0.0019,0.004 -0.0094,0.004 -0.0084,-3.4e-4 -0.01006,-0.002 -0.0043,-0.004 z m 0.04305,-0.007 c 0.0052,-0.002 0.01137,-0.002 0.01375,5.7e-4 0.0024,0.002 -0.0019,0.004 -0.0094,0.004 -0.0084,-3.5e-4 -0.01006,-0.002 -0.0043,-0.004 z m 1.371663,-0.62198 c 0,-0.001 0.0056,-0.007 0.01256,-0.0126 0.01138,-0.009 0.01163,-0.009 0.0027,0.003 -0.0094,0.0119 -0.01526,0.0157 -0.01526,0.01 z m 0.03587,-0.0287 c 0,-0.001 0.0057,-0.007 0.01256,-0.0126 0.01138,-0.009 0.01163,-0.009 0.0027,0.003 -0.0094,0.0119 -0.01526,0.0157 -0.01526,0.01 z m 0.05022,-0.043 c 0,-10e-4 0.0056,-0.007 0.01256,-0.0126 0.01138,-0.009 0.01163,-0.009 0.0027,0.003 -0.0094,0.0119 -0.01526,0.0158 -0.01526,0.01 z m 0.07174,-0.0655 c 0.0093,-0.01 0.01846,-0.0179 0.02044,-0.0179 0.002,0 -0.004,0.008 -0.01326,0.0179 -0.0093,0.01 -0.01846,0.0179 -0.02044,0.0179 -0.002,0 0.004,-0.008 0.01326,-0.0179 z m 0.208059,-0.20805 c 0.0093,-0.01 0.01846,-0.0179 0.02044,-0.0179 0.002,0 -0.004,0.008 -0.01326,0.0179 -0.0093,0.01 -0.01846,0.0179 -0.02044,0.0179 -0.002,0 0.004,-0.008 0.01326,-0.0179 z m 0.05381,-0.061 c 0.0071,-0.008 0.0146,-0.0144 0.01657,-0.0144 0.002,0 -0.0023,0.006 -0.0094,0.0144 -0.0071,0.008 -0.0146,0.0143 -0.01657,0.0143 -0.002,0 0.0023,-0.006 0.0094,-0.0143 z m 0.03229,-0.0386 c 0,-0.001 0.0057,-0.007 0.01256,-0.0125 0.01138,-0.009 0.01163,-0.009 0.0027,0.003 -0.0094,0.0119 -0.01526,0.0157 -0.01526,0.01 z m 0.682138,-1.472234 c 3.44e-4,-0.0084 0.002,-0.01006 0.0043,-0.0043 0.0021,0.0052 0.0018,0.01137 -5.67e-4,0.01375 -0.0024,0.0024 -0.0041,-0.0019 -0.0038,-0.0094 z m 0.01435,-0.09327 c 3.44e-4,-0.0084 0.002,-0.01006 0.0043,-0.0043 0.0021,0.0052 0.0018,0.01137 -5.67e-4,0.01375 -0.0024,0.0024 -0.0041,-0.0019 -0.0038,-0.0094 z m 0.0077,-0.05321 c 0,-0.0099 0.0016,-0.0139 0.0036,-0.009 0.002,0.0049 0.002,0.013 0,0.01794 -0.002,0.0049 -0.0036,8.97e-4 -0.0036,-0.009 z m 0.0072,-0.06457 c 0,-0.0099 0.0016,-0.0139 0.0036,-0.009 0.002,0.0049 0.002,0.013 0,0.01794 -0.002,0.0049 -0.0036,8.97e-4 -0.0036,-0.009 z m 0.0074,-0.08251 c 1.44e-4,-0.01184 0.0018,-0.01581 0.0036,-0.0088 0.0018,0.007 0.0017,0.01667 -2.65e-4,0.02152 -0.002,0.0049 -0.0035,-8.54e-4 -0.0033,-0.01269 z m 0.0079,-0.125552 c 0,-0.0217 0.0013,-0.03058 0.003,-0.01973 0.0016,0.01085 0.0016,0.02861 0,0.03946 -0.0016,0.01085 -0.003,0.002 -0.003,-0.01973 z m 7.1e-5,-0.23317 c 7.2e-5,-0.02367 0.0014,-0.0325 0.003,-0.0196 0.0016,0.0129 0.0016,0.03227 -7.1e-5,0.04305 -0.0016,0.01078 -0.0029,2.3e-4 -0.0029,-0.02345 z m -0.0077,-0.132727 c 0,-0.01381 0.0015,-0.01946 0.0033,-0.01255 0.0018,0.0069 0.0018,0.0182 0,0.02511 -0.0018,0.0069 -0.0033,0.0013 -0.0033,-0.01256 z m -0.0077,-0.07892 c 0,-0.0099 0.0016,-0.0139 0.0036,-0.009 0.002,0.0049 0.002,0.013 0,0.01794 -0.002,0.0049 -0.0036,8.97e-4 -0.0036,-0.009 z m -0.0072,-0.06457 c 0,-0.0099 0.0016,-0.0139 0.0036,-0.009 0.002,0.0049 0.002,0.013 0,0.01794 -0.002,0.0049 -0.0036,8.97e-4 -0.0036,-0.009 z m -0.0077,-0.05441 c 3.44e-4,-0.0084 0.002,-0.01006 0.0043,-0.0043 0.0021,0.0052 0.0018,0.01137 -5.67e-4,0.01375 -0.0024,0.0024 -0.0041,-0.0019 -0.0038,-0.0094 z m -0.0072,-0.05022 c 3.45e-4,-0.0084 0.002,-0.01006 0.0043,-0.0043 0.0021,0.0052 0.0018,0.01137 -5.67e-4,0.01375 -0.0024,0.0024 -0.0041,-0.0019 -0.0038,-0.0094 z m -0.0072,-0.04305 c 3.44e-4,-0.0084 0.002,-0.01006 0.0043,-0.0043 0.0021,0.0052 0.0018,0.01137 -5.67e-4,0.01375 -0.0024,0.0024 -0.0041,-0.0019 -0.0038,-0.0094 z m -0.0072,-0.03587 c 3.44e-4,-0.0084 0.002,-0.01006 0.0043,-0.0043 0.0021,0.0052 0.0018,0.01137 -5.66e-4,0.01375 -0.0024,0.0024 -0.0041,-0.0019 -0.0038,-0.0094 z m -0.02152,-0.107616 c 3.45e-4,-0.0084 0.002,-0.01006 0.0043,-0.0043 0.0021,0.0052 0.0018,0.01137 -5.67e-4,0.01375 -0.0024,0.0024 -0.0041,-0.0019 -0.0038,-0.0094 z M 86.832693,96.94383 c -0.0089,-0.01138 -0.0087,-0.01163 0.0027,-0.0027 0.01195,0.0094 0.01575,0.01526 0.0098,0.01526 -0.0015,0 -0.0071,-0.0056 -0.01255,-0.01256 z m -0.0751,-0.08968 -0.01367,-0.01614 0.01614,0.01367 c 0.0089,0.0075 0.01614,0.01478 0.01614,0.01614 0,0.0057 -0.0058,0.0015 -0.01862,-0.01367 z m -0.05716,-0.06457 -0.02107,-0.02332 0.02332,0.02107 c 0.02174,0.01964 0.02662,0.02556 0.02107,0.02556 -0.0012,0 -0.01173,-0.01049 -0.02332,-0.02332 z m -0.190215,-0.190123 -0.01739,-0.01973 0.01973,0.01739 c 0.01085,0.0096 0.01973,0.01844 0.01973,0.01973 0,0.0056 -0.0058,10e-4 -0.02207,-0.01739 z m -0.0683,-0.06098 -0.01367,-0.01614 0.01614,0.01367 c 0.0089,0.0075 0.01614,0.01478 0.01614,0.01614 0,0.0057 -0.0058,0.0015 -0.01862,-0.01367 z m -0.04687,-0.03946 c -0.0089,-0.01138 -0.0087,-0.01163 0.0027,-0.0027 0.01195,0.0094 0.01575,0.01526 0.0098,0.01526 -0.0015,0 -0.0071,-0.0057 -0.01255,-0.01256 z M 84.88799,95.817923 c 0.0052,-0.0021 0.01137,-0.0018 0.01375,5.67e-4 0.0024,0.0024 -0.0019,0.0041 -0.0094,0.0038 -0.0084,-3.45e-4 -0.01006,-0.002 -0.0043,-0.0043 z m -0.05784,-0.007 c 0.0049,-0.002 0.013,-0.002 0.01794,0 0.0049,0.002 8.97e-4,0.0036 -0.009,0.0036 -0.0099,0 -0.0139,-0.0016 -0.009,-0.0036 z m -0.0574,-0.0072 c 0.0049,-0.002 0.013,-0.002 0.01794,0 0.0049,0.002 8.97e-4,0.0036 -0.009,0.0036 -0.0099,0 -0.0139,-0.0016 -0.009,-0.0036 z m -0.06802,-0.0074 c 0.007,-0.0018 0.01667,-0.0017 0.02152,2.66e-4 0.0049,0.002 -8.54e-4,0.0035 -0.01269,0.0033 -0.01184,-1.46e-4 -0.01581,-0.0018 -0.0088,-0.0036 z m -0.08623,-0.0071 c 0.0069,-0.0018 0.01821,-0.0018 0.02511,0 0.0069,0.0018 0.0013,0.0033 -0.01255,0.0033 -0.01381,0 -0.01946,-0.0015 -0.01256,-0.0033 z"
           id="path1159" />
        <path
           style="fill:#a3a3a3;fill-opacity:1;stroke-width:0.00717444"
           d="m 69.794312,110.16836 c 0,-0.002 0.207107,-0.33357 0.460237,-0.73718 0.253131,-0.4036 0.698164,-1.11317 0.988963,-1.57682 0.290799,-0.46365 0.870936,-1.38861 1.289192,-2.05548 0.418255,-0.66686 0.880941,-1.40457 1.028189,-1.63936 0.147248,-0.23478 0.608924,-0.97088 1.025945,-1.63577 0.417022,-0.66489 0.878697,-1.40099 1.025945,-1.63577 0.376264,-0.59995 1.690803,-2.695834 2.301647,-3.669727 0.282147,-0.449838 0.596833,-0.951869 0.699303,-1.115626 0.102469,-0.163756 0.189131,-0.300806 0.192579,-0.304555 0.0036,-0.0039 0.0063,2.335468 0.0063,5.449418 v 5.45624 l -1.088722,1.73388 -1.088721,1.73388 -3.420415,1.1e-4 c -1.881228,7e-5 -3.420414,-0.001 -3.420414,-0.003 z"
           id="path1157" />
        <path
           style="fill:#8c8c8c;fill-opacity:1;stroke-width:0.00717444"
           d="m 72.631803,101.40046 c -0.544525,-0.0531 -1.050131,-0.25882 -1.481522,-0.60293 -0.120691,-0.0963 -0.333818,-0.30857 -0.424173,-0.42252 -0.353084,-0.445301 -0.551246,-0.926947 -0.613587,-1.49137 -0.01539,-0.139336 -0.01532,-0.426287 1.48e-4,-0.568989 0.0705,-0.650563 0.336587,-1.221619 0.782919,-1.680212 0.447834,-0.460136 0.996408,-0.736329 1.642292,-0.826852 0.140898,-0.01975 0.488823,-0.02518 0.632994,-0.0099 0.529233,0.05616 1.005528,0.243506 1.417732,0.557667 0.80362,0.612479 1.216537,1.607019 1.085058,2.613442 -0.162529,1.244084 -1.130082,2.230764 -2.367464,2.414264 -0.201341,0.0299 -0.474223,0.0369 -0.674397,0.0174 z"
           id="path1155" />
        <path
           style="fill:#767676;fill-opacity:1;stroke-width:0.00717444"
           d="m 78.812584,102.97933 v -7.192378 h 2.688024 c 1.478412,0 2.686678,0.0012 2.685034,0.0027 -0.0016,0.0015 -0.02882,0.0047 -0.06038,0.0071 -0.08777,0.0068 -0.270475,0.03357 -0.326437,0.04779 -0.01381,0.0035 -0.03562,0.0082 -0.04846,0.01039 -0.01284,0.0022 -0.06611,0.01509 -0.118378,0.02863 -0.443266,0.114856 -0.859252,0.330817 -1.221415,0.634101 -0.08335,0.0698 -0.293905,0.28039 -0.363357,0.363417 -0.270573,0.32346 -0.468566,0.679098 -0.593138,1.065404 -0.02468,0.07653 -0.05965,0.202281 -0.0691,0.248441 -0.0015,0.0074 -0.0061,0.02795 -0.01012,0.04571 -0.0041,0.01776 -0.0091,0.04197 -0.01128,0.05381 -0.0021,0.01184 -0.0056,0.02959 -0.0077,0.03946 -0.007,0.0332 -0.02438,0.146719 -0.02916,0.190123 -0.0026,0.02367 -0.0058,0.04866 -0.0071,0.05552 -0.01358,0.07242 -0.01876,0.426993 -0.0082,0.564302 0.0068,0.08851 0.02052,0.207478 0.02992,0.259047 0.0018,0.0099 0.0049,0.02924 0.0069,0.04305 0.002,0.01381 0.01027,0.0574 0.01842,0.09686 0.108549,0.525543 0.349094,1.015793 0.695239,1.416953 0.05936,0.0688 0.263102,0.27392 0.312152,0.31427 0.02065,0.017 0.04588,0.0386 0.05607,0.0481 0.03029,0.0281 0.190777,0.14814 0.260282,0.1947 0.226086,0.15146 0.514211,0.29132 0.771252,0.37437 0.0842,0.0272 0.255087,0.0726 0.319263,0.0848 0.01578,0.003 0.03031,0.006 0.03229,0.006 0.002,4.8e-4 0.01973,0.004 0.03946,0.007 0.01973,0.003 0.03749,0.007 0.03946,0.007 0.002,4.3e-4 0.02134,0.003 0.04305,0.007 0.0217,0.003 0.04548,0.007 0.05284,0.008 0.0074,0.001 0.03157,0.004 0.05381,0.007 0.02224,0.002 0.04805,0.006 0.05737,0.007 0.0093,0.002 0.05452,0.005 0.100442,0.007 0.04593,0.003 0.08485,0.006 0.08649,0.008 0.0016,0.002 -0.02096,0.003 -0.05022,0.003 -0.0585,2.9e-4 -0.08917,0.003 -0.243333,0.0184 -1.164406,0.11948 -2.227159,0.7512 -2.901473,1.7247 -0.418283,0.60387 -0.663157,1.30537 -0.715008,2.0483 -0.0109,0.15623 -0.0047,0.54259 0.01103,0.68516 0.05985,0.54301 0.203295,1.02027 0.446371,1.48511 0.309689,0.59223 0.780808,1.11726 1.337153,1.49018 0.547018,0.36667 1.169049,0.59137 1.832687,0.66203 0.119643,0.0127 0.07137,0.013 -2.534371,0.0137 l -2.656336,7.4e-4 z m 5.607482,-0.94159 c -0.0023,-0.002 -0.0042,-1.40987 -0.0042,-3.127868 v -3.123626 l 0.09147,0.0014 c 0.480376,0.0073 1.00387,0.153007 1.436682,0.399768 0.417013,0.237754 0.773947,0.567538 1.041938,0.962683 0.551442,0.813088 0.689989,1.840797 0.373757,2.77245 -0.167968,0.494853 -0.461107,0.945593 -0.84174,1.294273 -0.338095,0.30973 -0.729607,0.53789 -1.158672,0.67525 -0.263899,0.0845 -0.577314,0.13875 -0.826672,0.14315 -0.04429,7.8e-4 -0.08677,0.003 -0.0944,0.004 -0.0076,0.001 -0.01578,7.7e-4 -0.01812,-0.002 z"
           id="path1153" />
        <path
           style="fill:#606060;fill-opacity:1;stroke-width:0.00717444"
           d="m 84.283834,110.18007 c -0.002,-0.003 8.63e-4,-0.006 0.0064,-0.006 0.0056,0 0.0085,0.003 0.0064,0.006 -0.002,0.003 -0.0049,0.006 -0.0064,0.006 -0.0015,0 -0.0044,-0.003 -0.0064,-0.006 z m 0.132,-4.06433 c 0,-2.23735 -8.39e-4,-4.06858 -0.0018,-4.06938 -9.8e-4,-8.1e-4 -0.04698,-0.004 -0.102224,-0.006 -0.05524,-0.003 -0.111742,-0.006 -0.125552,-0.007 -0.01381,-0.001 -0.0506,-0.005 -0.08175,-0.007 -0.03115,-0.003 -0.06214,-0.006 -0.06886,-0.007 -0.0067,-0.001 -0.02966,-0.004 -0.05098,-0.007 -0.02132,-0.003 -0.0436,-0.006 -0.04952,-0.007 -0.0059,-0.002 -0.02529,-0.005 -0.04305,-0.007 -0.01776,-0.002 -0.03713,-0.006 -0.04305,-0.007 -0.0059,-0.002 -0.02206,-0.005 -0.03587,-0.007 -0.286875,-0.0482 -0.684748,-0.20025 -0.975724,-0.37298 -0.134766,-0.08 -0.340391,-0.22483 -0.407358,-0.28693 -0.01019,-0.009 -0.03543,-0.0311 -0.05607,-0.0481 -0.04905,-0.0404 -0.252788,-0.24547 -0.312152,-0.31427 -0.346145,-0.40116 -0.58669,-0.89141 -0.695239,-1.416949 -0.0082,-0.03946 -0.01644,-0.08304 -0.01842,-0.09686 -0.002,-0.01381 -0.0051,-0.03318 -0.0069,-0.04305 -0.0094,-0.05157 -0.02314,-0.170533 -0.02992,-0.259047 -0.01052,-0.137309 -0.0053,-0.491886 0.0082,-0.564302 0.0013,-0.0069 0.0045,-0.03185 0.0071,-0.05552 0.0048,-0.0434 0.02218,-0.156919 0.02916,-0.190123 0.0021,-0.0099 0.0055,-0.02762 0.0077,-0.03946 0.0022,-0.01184 0.0072,-0.03605 0.01128,-0.05381 0.0041,-0.01776 0.0086,-0.03833 0.01012,-0.04571 0.0094,-0.04616 0.04442,-0.17191 0.0691,-0.248441 0.124572,-0.386306 0.322565,-0.741944 0.593138,-1.065404 0.06945,-0.08303 0.280011,-0.293621 0.363357,-0.363417 0.362163,-0.303284 0.778149,-0.519245 1.221415,-0.634101 0.05227,-0.01354 0.105535,-0.02643 0.118378,-0.02863 0.01284,-0.0022 0.03465,-0.0069 0.04846,-0.01039 0.03321,-0.0084 0.193143,-0.03416 0.247518,-0.03981 0.02368,-0.0025 0.05112,-0.006 0.06098,-0.0078 0.0099,-0.0018 0.08331,-0.0053 0.163218,-0.0077 l 0.145283,-0.0044 v 3.12912 3.129114 l 0.09147,5.4e-4 c 0.05031,2.9e-4 0.09793,0.002 0.105823,0.003 0.0079,0.001 0.04986,0.004 0.09327,0.007 0.347629,0.0198 0.756847,0.10815 1.115625,0.24096 0.927425,0.34329 1.71476,1.03939 2.17723,1.92495 0.231086,0.44249 0.382944,0.94164 0.437436,1.43783 0.03376,0.30744 0.02976,0.6778 -0.01067,0.98846 -0.169689,1.30362 -0.972807,2.45665 -2.137655,3.06901 -0.420012,0.2208 -0.91968,0.37716 -1.370318,0.42883 -0.03749,0.004 -0.07563,0.009 -0.08476,0.0105 -0.0091,0.001 -0.0511,0.005 -0.09327,0.008 -0.04217,0.003 -0.08151,0.006 -0.08743,0.007 -0.0059,0.001 -0.05857,0.002 -0.117008,0.003 -0.05844,3.1e-4 -0.104584,0.003 -0.102551,0.007 0.002,0.003 -9.95e-4,0.006 -0.0067,0.006 -0.0091,0 -0.01043,-0.51588 -0.01046,-4.06792 z m -0.03723,4.05824 c 0.0052,-0.002 0.01137,-0.002 0.01375,5.6e-4 0.0024,0.002 -0.0019,0.004 -0.0094,0.004 -0.0084,-3.4e-4 -0.01006,-0.002 -0.0043,-0.004 z m -0.233617,-0.007 c 0.0069,-0.002 0.0182,-0.002 0.02511,0 0.0069,0.002 0.0013,0.003 -0.01255,0.003 -0.01381,0 -0.01946,-10e-4 -0.01256,-0.003 z m -0.09313,-0.007 c 0.007,-0.002 0.01667,-0.002 0.02152,2.6e-4 0.0049,0.002 -8.54e-4,0.003 -0.01269,0.003 -0.01184,-1.4e-4 -0.01581,-0.002 -0.0088,-0.004 z m -0.07547,-0.007 c 0.0049,-0.002 0.013,-0.002 0.01794,0 0.0049,0.002 8.97e-4,0.004 -0.009,0.004 -0.0099,0 -0.0139,-0.002 -0.009,-0.004 z m -0.06457,-0.007 c 0.0049,-0.002 0.013,-0.002 0.01794,0 0.0049,0.002 8.97e-4,0.004 -0.009,0.004 -0.0099,0 -0.0139,-0.002 -0.009,-0.004 z m -0.04977,-0.007 c 0.0052,-0.002 0.01137,-0.002 0.01375,5.6e-4 0.0024,0.002 -0.0019,0.004 -0.0094,0.004 -0.0084,-3.4e-4 -0.01006,-0.002 -0.0043,-0.004 z m -0.05022,-0.007 c 0.0052,-0.002 0.01137,-0.002 0.01375,5.7e-4 0.0024,0.002 -0.0019,0.004 -0.0094,0.004 -0.0084,-3.5e-4 -0.01006,-0.002 -0.0043,-0.004 z m -0.12914,-0.0215 c 0.0052,-0.002 0.01137,-0.002 0.01375,5.6e-4 0.0024,0.002 -0.0019,0.004 -0.0094,0.004 -0.0084,-3.4e-4 -0.01006,-0.002 -0.0043,-0.004 z m -1.150102,-0.39679 c -0.0025,-0.004 3.66e-4,-0.005 0.0068,-0.003 0.01243,0.005 0.0147,0.01 0.0044,0.01 -0.0037,0 -0.0087,-0.003 -0.01113,-0.007 z m -0.585683,-0.37853 c -0.0089,-0.0114 -0.0087,-0.0116 0.0027,-0.003 0.0069,0.005 0.01256,0.0111 0.01256,0.0126 0,0.006 -0.0059,0.002 -0.01526,-0.01 z m -0.107617,-0.0861 c -0.0089,-0.0114 -0.0087,-0.0116 0.0027,-0.003 0.01195,0.009 0.01575,0.0153 0.0098,0.0153 -0.0015,0 -0.0071,-0.006 -0.01256,-0.0126 z m -0.0464,-0.0395 -0.01367,-0.0161 0.01614,0.0137 c 0.01517,0.0128 0.01941,0.0186 0.01367,0.0186 -0.0014,0 -0.0086,-0.007 -0.01614,-0.0161 z m -0.05739,-0.0502 -0.01367,-0.0161 0.01614,0.0137 c 0.01517,0.0128 0.01941,0.0186 0.01367,0.0186 -0.0014,0 -0.0086,-0.007 -0.01614,-0.0161 z m -0.07504,-0.0682 -0.02472,-0.0269 0.0269,0.0247 c 0.02504,0.023 0.0302,0.0291 0.02473,0.0291 -0.0012,0 -0.01331,-0.0121 -0.0269,-0.0269 z m -0.204537,-0.20447 -0.02107,-0.0233 0.02332,0.0211 c 0.01282,0.0116 0.02332,0.0221 0.02332,0.0233 0,0.006 -0.0059,6.6e-4 -0.02556,-0.0211 z m -0.07198,-0.0789 -0.01367,-0.0161 0.01614,0.0137 c 0.01517,0.0129 0.01941,0.0186 0.01367,0.0186 -0.0014,0 -0.0086,-0.007 -0.01614,-0.0161 z m -0.04687,-0.0538 c -0.0089,-0.0114 -0.0087,-0.0116 0.0027,-0.003 0.0069,0.005 0.01256,0.0111 0.01256,0.0126 0,0.006 -0.0059,0.002 -0.01526,-0.01 z m -0.03587,-0.0431 c -0.0089,-0.0114 -0.0087,-0.0116 0.0027,-0.003 0.01195,0.009 0.01575,0.0153 0.0098,0.0153 -0.0015,0 -0.0071,-0.006 -0.01256,-0.0126 z m -0.859451,-1.81394 c 3.44e-4,-0.008 0.002,-0.0101 0.0043,-0.004 0.0021,0.005 0.0018,0.0114 -5.66e-4,0.0138 -0.0024,0.002 -0.0041,-0.002 -0.0038,-0.009 z m -0.0072,-0.0359 c 3.45e-4,-0.008 0.002,-0.0101 0.0043,-0.004 0.0021,0.005 0.0018,0.0114 -5.67e-4,0.0137 -0.0024,0.002 -0.0041,-0.002 -0.0038,-0.009 z m -0.0072,-0.043 c 3.44e-4,-0.008 0.002,-0.0101 0.0043,-0.004 0.0021,0.005 0.0018,0.0114 -5.67e-4,0.0138 -0.0024,0.002 -0.0041,-0.002 -0.0038,-0.009 z m -0.0072,-0.043 c 3.45e-4,-0.008 0.002,-0.0101 0.0043,-0.004 0.0021,0.005 0.0018,0.0114 -5.67e-4,0.0138 -0.0024,0.002 -0.0041,-0.002 -0.0038,-0.009 z m -0.0072,-0.0431 c 3.44e-4,-0.008 0.002,-0.0101 0.0043,-0.004 0.0021,0.005 0.0018,0.0114 -5.67e-4,0.0138 -0.0024,0.002 -0.0041,-0.002 -0.0038,-0.009 z m -0.0072,-0.0502 c 3.45e-4,-0.008 0.002,-0.0101 0.0043,-0.004 0.0021,0.005 0.0018,0.0114 -5.66e-4,0.0138 -0.0024,0.002 -0.0041,-0.002 -0.0038,-0.009 z m -0.0066,-0.0532 c 0,-0.01 0.0016,-0.0139 0.0036,-0.009 0.002,0.005 0.002,0.013 0,0.0179 -0.002,0.005 -0.0036,9e-4 -0.0036,-0.009 z m -0.0072,-0.0574 c 0,-0.01 0.0016,-0.0139 0.0036,-0.009 0.002,0.005 0.002,0.013 0,0.0179 -0.002,0.005 -0.0036,9e-4 -0.0036,-0.009 z m -0.0072,-0.0646 c 0,-0.01 0.0016,-0.0139 0.0036,-0.009 0.002,0.005 0.002,0.013 0,0.0179 -0.002,0.005 -0.0036,9e-4 -0.0036,-0.009 z m -0.0066,-0.0861 c 0,-0.0138 0.0015,-0.0195 0.0033,-0.0126 0.0018,0.007 0.0018,0.0182 0,0.0251 -0.0018,0.007 -0.0033,10e-4 -0.0033,-0.0126 z m -0.0068,-0.12555 c 7.2e-5,-0.0197 0.0014,-0.0269 0.0031,-0.0161 0.0016,0.0109 0.0016,0.0271 -1.01e-4,0.0359 -0.0017,0.009 -0.0031,-1e-4 -0.003,-0.0198 z m 1.01e-4,-0.37666 c 0,-0.0217 0.0013,-0.0306 0.003,-0.0197 0.0016,0.0108 0.0016,0.0286 0,0.0395 -0.0016,0.0109 -0.003,0.002 -0.003,-0.0197 z m 0.0068,-0.11838 c 7.9e-5,-0.0158 0.0015,-0.0214 0.0033,-0.0125 0.0017,0.009 0.0017,0.0218 -1.43e-4,0.0287 -0.0018,0.007 -0.0032,-4.5e-4 -0.0031,-0.0162 z m 0.007,-0.0825 c 0,-0.0138 0.0015,-0.0195 0.0033,-0.0126 0.0018,0.007 0.0018,0.0182 0,0.0251 -0.0018,0.007 -0.0033,0.001 -0.0033,-0.0126 z m 0.0066,-0.0717 c 0,-0.01 0.0016,-0.0139 0.0036,-0.009 0.002,0.005 0.002,0.013 0,0.0179 -0.002,0.005 -0.0036,9e-4 -0.0036,-0.009 z m 0.0066,-0.0616 c 3.45e-4,-0.008 0.002,-0.0101 0.0043,-0.004 0.0021,0.005 0.0018,0.0114 -5.67e-4,0.0138 -0.0024,0.002 -0.0041,-0.002 -0.0038,-0.009 z m 0.0072,-0.0502 c 3.44e-4,-0.008 0.002,-0.0101 0.0043,-0.004 0.0021,0.005 0.0018,0.0114 -5.66e-4,0.0138 -0.0024,0.002 -0.0041,-0.002 -0.0038,-0.009 z m 0.0072,-0.0502 c 3.44e-4,-0.008 0.002,-0.0101 0.0043,-0.004 0.0021,0.005 0.0018,0.0114 -5.67e-4,0.0138 -0.0024,0.002 -0.0041,-0.002 -0.0038,-0.009 z m 0.0072,-0.043 c 3.44e-4,-0.008 0.002,-0.0101 0.0043,-0.004 0.0021,0.005 0.0018,0.0114 -5.66e-4,0.0138 -0.0024,0.002 -0.0041,-0.002 -0.0038,-0.009 z m 0.0072,-0.043 c 3.44e-4,-0.008 0.002,-0.0101 0.0043,-0.004 0.0021,0.005 0.0018,0.0114 -5.67e-4,0.0138 -0.0024,0.002 -0.0041,-0.002 -0.0038,-0.009 z m 0.01435,-0.0789 c 3.44e-4,-0.008 0.002,-0.0101 0.0043,-0.004 0.0021,0.005 0.0018,0.0114 -5.67e-4,0.0138 -0.0024,0.002 -0.0041,-0.002 -0.0038,-0.009 z m 0.0072,-0.0359 c 3.45e-4,-0.008 0.002,-0.0101 0.0043,-0.004 0.0021,0.005 0.0018,0.0114 -5.67e-4,0.0138 -0.0024,0.002 -0.0041,-0.002 -0.0038,-0.009 z m 0.853191,-1.77779 c 0,-0.001 0.0056,-0.007 0.01256,-0.0126 0.01138,-0.009 0.01163,-0.009 0.0027,0.003 -0.0094,0.0119 -0.01526,0.0158 -0.01526,0.01 z m 0.04305,-0.0502 c 0,-0.001 0.0056,-0.007 0.01255,-0.0126 0.01138,-0.009 0.01163,-0.009 0.0027,0.003 -0.0094,0.0119 -0.01526,0.0157 -0.01526,0.01 z m 0.0574,-0.0654 c 0.0093,-0.01 0.01846,-0.0179 0.02044,-0.0179 0.002,0 -0.004,0.008 -0.01326,0.0179 -0.0093,0.01 -0.01846,0.0179 -0.02044,0.0179 -0.002,0 0.004,-0.008 0.01326,-0.0179 z m 0.09686,-0.10403 c 0.01943,-0.0197 0.03695,-0.0359 0.03892,-0.0359 0.002,0 -0.01231,0.0161 -0.03175,0.0359 -0.01943,0.0197 -0.03695,0.0359 -0.03892,0.0359 -0.002,0 0.01231,-0.0161 0.03175,-0.0359 z m 0.125552,-0.12555 c 0.02143,-0.0217 0.04058,-0.0395 0.04256,-0.0395 0.002,0 -0.01395,0.0178 -0.03538,0.0395 -0.02143,0.0217 -0.04058,0.0395 -0.04256,0.0395 -0.002,0 0.01395,-0.0178 0.03538,-0.0395 z m 0.09685,-0.0897 c 0.0071,-0.008 0.0146,-0.0144 0.01657,-0.0144 0.002,0 -0.0023,0.006 -0.0094,0.0144 -0.0071,0.008 -0.0146,0.0143 -0.01657,0.0143 -0.002,0 0.0023,-0.006 0.0094,-0.0143 z m 0.05381,-0.0458 c 0,-10e-4 0.0056,-0.007 0.01256,-0.0126 0.01138,-0.009 0.01163,-0.009 0.0027,0.003 -0.0094,0.012 -0.01526,0.0158 -0.01526,0.01 z m 0.08609,-0.0717 c 0,-0.001 0.0057,-0.007 0.01255,-0.0126 0.01138,-0.009 0.01163,-0.009 0.0027,0.003 -0.0094,0.0119 -0.01526,0.0157 -0.01526,0.01 z m 0.638525,-0.43058 c 0,-0.002 0.005,-0.005 0.01113,-0.007 0.0064,-0.002 0.0093,-0.001 0.0068,0.003 -0.0042,0.007 -0.01788,0.0101 -0.01788,0.004 z m 1.081995,-0.39667 c 0.0052,-0.002 0.01137,-0.002 0.01375,5.6e-4 0.0024,0.002 -0.0019,0.004 -0.0094,0.004 -0.0084,-3.4e-4 -0.01006,-0.002 -0.0043,-0.004 z m 0.03587,-0.007 c 0.0052,-0.002 0.01137,-0.002 0.01375,5.7e-4 0.0024,0.002 -0.0019,0.004 -0.0094,0.004 -0.0084,-3.5e-4 -0.01006,-0.002 -0.0043,-0.004 z m 0.03587,-0.007 c 0.0052,-0.002 0.01137,-0.002 0.01375,5.6e-4 0.0024,0.002 -0.0019,0.004 -0.0094,0.004 -0.0084,-3.4e-4 -0.01006,-0.002 -0.0043,-0.004 z m 0.07892,-0.0143 c 0.0052,-0.002 0.01137,-0.002 0.01375,5.6e-4 0.0024,0.002 -0.0019,0.004 -0.0094,0.004 -0.0084,-3.4e-4 -0.01006,-0.002 -0.0043,-0.004 z m 0.09327,-0.0144 c 0.0052,-0.002 0.01137,-0.002 0.01375,5.7e-4 0.0024,0.002 -0.0019,0.004 -0.0094,0.004 -0.0084,-3.4e-4 -0.01006,-0.002 -0.0043,-0.004 z m 0.05022,-0.007 c 0.0052,-0.002 0.01137,-0.002 0.01375,5.7e-4 0.0024,0.002 -0.0019,0.004 -0.0094,0.004 -0.0084,-3.5e-4 -0.01006,-0.002 -0.0043,-0.004 z m 0.0574,-0.007 c 0.0052,-0.002 0.01137,-0.002 0.01375,5.7e-4 0.0024,0.002 -0.0019,0.004 -0.0094,0.004 -0.0084,-3.4e-4 -0.01006,-0.002 -0.0043,-0.004 z m 0.06457,-0.007 c 0.0052,-0.002 0.01137,-0.002 0.01375,5.6e-4 0.0024,0.002 -0.0019,0.004 -0.0094,0.004 -0.0084,-3.4e-4 -0.01006,-0.002 -0.0043,-0.004 z m 0.07488,-0.007 c 0.0069,-0.002 0.01821,-0.002 0.02511,0 0.0069,0.002 0.0013,0.003 -0.01256,0.003 -0.01381,0 -0.01946,-10e-4 -0.01256,-0.003 z m 0.10403,-0.007 c 0.0089,-0.002 0.02341,-0.002 0.03229,0 0.0089,0.002 0.0016,0.003 -0.01614,0.003 -0.01776,0 -0.02502,-0.001 -0.01614,-0.003 z"
           id="path1151" />
        <path
           style="fill:#333333;fill-opacity:1;stroke-width:0.00717444"
           d="m 84.303664,110.18067 c 0.0041,-0.007 -0.0063,-0.009 -0.04346,-0.009 -0.04888,-2.6e-4 -0.06035,-0.001 -0.221037,-0.0147 -0.511128,-0.0437 -1.053916,-0.20622 -1.517984,-0.45461 -0.887565,-0.47508 -1.55971,-1.25095 -1.907104,-2.2014 -0.115947,-0.31722 -0.205047,-0.7206 -0.226942,-1.02741 -0.0025,-0.0355 -0.006,-0.0726 -0.0078,-0.0825 -0.0068,-0.0379 -0.0085,-0.43157 -0.0023,-0.52373 0.03813,-0.56663 0.171848,-1.07297 0.412087,-1.56044 0.213319,-0.43284 0.477441,-0.79391 0.83226,-1.13774 0.504426,-0.4888 1.137269,-0.83823 1.829482,-1.01018 0.179257,-0.0445 0.43695,-0.0879 0.58113,-0.0979 0.03551,-0.002 0.06858,-0.006 0.07348,-0.007 0.0049,-0.002 0.07673,-0.005 0.159631,-0.008 l 0.150722,-0.005 v 4.0726 c 0,2.86158 -0.0023,4.07259 -0.0076,4.07259 -0.0042,0 -0.0052,-0.004 -0.0022,-0.009 0.0031,-0.005 -2.52e-4,-0.004 -0.0081,0.002 -0.0079,0.006 -0.01127,0.007 -0.0081,0.002 0.0034,-0.006 0.0012,-0.009 -0.0062,-0.009 -0.0064,0 -0.01,0.003 -0.008,0.006 0.0044,0.007 -0.04295,0.007 -0.05014,-6.1e-4 -0.0028,-0.003 -0.01008,-10e-4 -0.01613,0.004 -0.0088,0.007 -0.0099,0.007 -0.0056,-7e-5 z"
           id="path1149" />
      </g>
    </g>
    <g
       id="g1031"
       transform="translate(38.589256,0.67171493)">
      <path
         style="fill:#d0d0d0;fill-opacity:1;stroke-width:0.0396618"
         d="m 45.581195,114.77688 c 0,-0.008 0.03123,-0.0395 0.06941,-0.0694 0.06291,-0.0493 0.06431,-0.0479 0.01497,0.015 -0.05181,0.0661 -0.08438,0.0871 -0.08438,0.0544 z m -2.24216,-2.88034 c 0,-1.25431 0.005,-1.76744 0.01116,-1.14028 0.0061,0.62715 0.0061,1.6534 0,2.28055 -0.0061,0.62716 -0.01116,0.11403 -0.01116,-1.14027 z m -4.802239,1.24934 c 8e-5,-0.28358 0.0064,-0.39439 0.01404,-0.24623 0.0077,0.14815 0.0076,0.38017 -1.19e-4,0.5156 -0.0077,0.13543 -0.01398,0.0142 -0.01391,-0.26937 z m 1.458341,0.0992 c 0,-0.0545 0.009,-0.0769 0.02,-0.0496 0.011,0.0273 0.011,0.0719 0,0.0992 -0.011,0.0273 -0.02,0.005 -0.02,-0.0496 z m 0.953354,-0.0198 c 8.09e-4,-0.0654 0.0097,-0.0874 0.01975,-0.0488 0.01006,0.0386 0.0094,0.0921 -0.0015,0.11899 -0.01086,0.0268 -0.01909,-0.005 -0.01828,-0.0702 z m 0.913692,-0.13882 c 0,-0.0763 0.0082,-0.10758 0.01814,-0.0694 0.01,0.0382 0.01,0.10064 0,0.13882 -0.01,0.0382 -0.01814,0.007 -0.01814,-0.0694 z m 3.332395,-0.0198 c 4.4e-4,-0.0873 0.0086,-0.11828 0.01805,-0.069 0.0095,0.0493 0.0091,0.12073 -8.01e-4,0.15865 -0.0099,0.0379 -0.01769,-0.002 -0.01725,-0.0897 z m -4.247557,-0.0991 c 0,-0.0545 0.009,-0.0769 0.02,-0.0496 0.011,0.0273 0.011,0.0719 0,0.0992 -0.011,0.0273 -0.02,0.005 -0.02,-0.0496 z m -2.408531,-2.39955 c 2.6e-5,-0.52353 0.0057,-0.73222 0.01254,-0.46375 0.0069,0.26847 0.0069,0.69682 -4e-5,0.95189 -0.0069,0.25506 -0.01252,0.0354 -0.01249,-0.48814 z M 51.265853,94.227183 c 1.59e-4,-0.152698 0.0073,-0.210306 0.01593,-0.128017 0.0086,0.08229 0.0084,0.207224 -3.17e-4,0.277633 -0.0088,0.07041 -0.01579,0.0031 -0.01561,-0.149616 z m -0.0017,-0.63459 c 3.17e-4,-0.10907 0.008,-0.148982 0.01712,-0.08869 0.0091,0.06029 0.0089,0.149528 -5.4e-4,0.19831 -0.0094,0.04878 -0.01687,-5.48e-4 -0.01657,-0.109616 z"
         id="path1047" />
      <path
         style="fill:#b9b9b9;fill-opacity:1;stroke-width:0.0396618"
         d="m 41.856112,113.26156 c 0.0019,-0.0462 0.0113,-0.0556 0.02396,-0.024 0.01146,0.0286 0.01005,0.0628 -0.0031,0.076 -0.01318,0.0132 -0.02255,-0.0102 -0.02083,-0.0521 z m -1.859506,-0.195 c 8.1e-4,-0.0654 0.0097,-0.0874 0.01975,-0.0488 0.01006,0.0386 0.0094,0.0921 -0.0015,0.11898 -0.01086,0.0269 -0.01909,-0.005 -0.01828,-0.0702 z m 1.859506,-0.16195 c 0.0019,-0.0462 0.0113,-0.0556 0.02396,-0.024 0.01146,0.0286 0.01005,0.0628 -0.0031,0.076 -0.01318,0.0132 -0.02255,-0.0102 -0.02083,-0.052 z m -3.331595,-0.3173 c 0.0019,-0.0462 0.0113,-0.0556 0.02396,-0.024 0.01146,0.0286 0.01005,0.0628 -0.0031,0.076 -0.01318,0.0132 -0.02255,-0.0102 -0.02083,-0.0521 z m 5.866822,-1.14203 c 0,-0.008 0.03123,-0.0395 0.06941,-0.0694 0.06291,-0.0493 0.06431,-0.0479 0.01497,0.015 -0.05181,0.0661 -0.08438,0.0871 -0.08438,0.0544 z m -1.298925,-4.45682 c 0.343571,-0.007 0.905777,-0.007 1.249348,0 0.343571,0.007 0.06247,0.012 -0.624674,0.012 -0.687142,0 -0.968245,-0.005 -0.624674,-0.012 z m 8.250419,-13.80014 c 0.03859,-0.01006 0.09213,-0.0094 0.118985,0.0015 0.02685,0.01086 -0.0047,0.01909 -0.07016,0.01828 -0.06544,-8.09e-4 -0.08741,-0.0097 -0.04882,-0.01975 z"
         id="path1045" />
      <path
         style="fill:#a3a3a3;fill-opacity:1;stroke-width:0.0396618"
         d="m 43.328202,114.33574 c 8.09e-4,-0.0654 0.0097,-0.0874 0.01975,-0.0488 0.01006,0.0386 0.0094,0.0921 -0.0015,0.11898 -0.01086,0.0268 -0.01909,-0.005 -0.01828,-0.0702 z m -3.836387,-2.47887 c 0,-1.23249 0.005,-1.73669 0.01118,-1.12044 0.0061,0.61624 0.0061,1.62464 0,2.24089 -0.0061,0.61625 -0.01118,0.11205 -0.01118,-1.12045 z m 6.655989,1.13037 c 3.18e-4,-0.10907 0.008,-0.14899 0.01712,-0.0887 0.0091,0.0603 0.0089,0.14953 -5.39e-4,0.19831 -0.0094,0.0488 -0.01687,-5.4e-4 -0.01658,-0.10961 z m -3.863602,-1.51707 c -0.04933,-0.0629 -0.04793,-0.0643 0.01497,-0.015 0.03817,0.0299 0.06941,0.0612 0.06941,0.0694 0,0.0326 -0.03257,0.0116 -0.08438,-0.0544 z"
         id="path1043" />
      <path
         style="fill:#8c8c8c;fill-opacity:1;stroke-width:0.0396618"
         d="m 48.050145,115.00248 c 0.03817,-0.01 0.100642,-0.01 0.138816,0 0.03818,0.01 0.0069,0.0181 -0.06941,0.0181 -0.07635,0 -0.107583,-0.008 -0.06941,-0.0181 z m -14.857283,-0.0421 c -0.01018,-0.0164 0.127082,-0.0249 0.305039,-0.0191 0.555979,0.0184 0.618895,0.0352 0.157334,0.0421 -0.24412,0.004 -0.452188,-0.007 -0.462373,-0.0231 z m 2.601772,4.4e-4 c 0.125431,-0.008 0.330681,-0.008 0.456111,0 0.125431,0.008 0.02281,0.0143 -0.228055,0.0143 -0.250862,0 -0.353487,-0.006 -0.228056,-0.0143 z m 3.113455,8e-5 c 0.114524,-0.008 0.301926,-0.008 0.416449,0 0.114524,0.008 0.02082,0.0146 -0.208224,0.0146 -0.229047,0 -0.322749,-0.007 -0.208225,-0.0146 z m 4.531366,0.004 c 0.331939,-0.0293 0.705117,-0.0315 0.688086,-0.004 -0.01018,0.0164 -0.200403,0.0268 -0.422709,0.0231 -0.222307,-0.004 -0.341726,-0.0122 -0.265377,-0.0189 z m -3.959922,-0.80733 c 0,-0.0545 0.009,-0.0768 0.02,-0.0496 0.011,0.0273 0.011,0.0719 0,0.0992 -0.011,0.0273 -0.02,0.005 -0.02,-0.0496 z m 4.808683,-1.05104 c 4e-5,-0.32721 0.0062,-0.45579 0.01365,-0.28573 0.0075,0.17005 0.0074,0.43777 -1.19e-4,0.59492 -0.0075,0.15716 -0.01361,0.018 -0.01355,-0.30919 z m -9.643776,-0.12831 c 0.103617,-0.008 0.273171,-0.008 0.376788,0 0.103617,0.008 0.01884,0.0149 -0.188394,0.0149 -0.207233,0 -0.29201,-0.007 -0.188394,-0.0149 z m 9.645109,-2.37038 c -2.4e-5,-0.54536 0.0056,-0.77395 0.01241,-0.508 0.0069,0.26595 0.0069,0.71215 3.9e-5,0.99154 -0.0068,0.2794 -0.01243,0.0618 -0.01245,-0.48354 z m 4.959939,-10.807858 c 0,-3.93743 0.0047,-5.548196 0.01034,-3.579482 0.0057,1.968715 0.0057,5.19025 0,7.15896 -0.0057,1.96872 -0.01034,0.35795 -0.01034,-3.579478 z m -10.004273,4.293458 c 0.387198,-0.007 1.020796,-0.007 1.407995,0 0.387199,0.006 0.0704,0.0118 -0.703998,0.0118 -0.774397,0 -1.091196,-0.005 -0.703997,-0.0118 z m 11.859647,-9.595969 c 0.03859,-0.01006 0.09213,-0.0094 0.118985,0.0015 0.02685,0.01086 -0.0047,0.01909 -0.07016,0.01828 -0.06544,-8.09e-4 -0.08741,-0.0097 -0.04882,-0.01975 z m 0.713913,0 c 0.03859,-0.01006 0.09213,-0.0094 0.118985,0.0015 0.02685,0.01086 -0.0047,0.01909 -0.07016,0.01828 -0.06544,-8.09e-4 -0.08741,-0.0097 -0.04882,-0.01975 z"
         id="path1041" />
      <path
         style="fill:#767676;fill-opacity:1;stroke-width:0.0396618"
         d="m 47.003962,114.60346 c -0.04933,-0.0629 -0.04793,-0.0643 0.01497,-0.015 0.03817,0.0299 0.06941,0.0612 0.06941,0.0694 0,0.0326 -0.03257,0.0116 -0.08438,-0.0544 z m -7.52756,-0.31069 c 0.0019,-0.0462 0.0113,-0.0556 0.02396,-0.024 0.01146,0.0286 0.01005,0.0628 -0.0031,0.076 -0.01318,0.0132 -0.02255,-0.0102 -0.02083,-0.0521 z m -1.859506,-1.14689 c 8.09e-4,-0.0654 0.0097,-0.0874 0.01975,-0.0488 0.01006,0.0386 0.0094,0.0921 -0.0015,0.11899 -0.01086,0.0269 -0.01909,-0.005 -0.01828,-0.0702 z m 5.191101,-0.20161 c 0.0019,-0.0462 0.0113,-0.0556 0.02396,-0.024 0.01146,0.0286 0.01005,0.0628 -0.0031,0.076 -0.01318,0.0132 -0.02255,-0.0102 -0.02083,-0.0521 z m -8.223049,-3.17926 c 0.158151,-0.008 0.416945,-0.008 0.575096,0 0.158152,0.008 0.02876,0.0137 -0.287548,0.0137 -0.316303,0 -0.4457,-0.006 -0.287548,-0.0137 z m 7.845057,-2.91544 c -0.02943,-0.0709 -0.28846,-0.72212 -0.575612,-1.44716 l -0.522093,-1.31825 -1.381211,-0.0104 -1.38121,-0.0104 1.263584,-2.97464 c 0.694971,-1.636049 1.277501,-3.005584 1.29451,-3.043408 0.02195,-0.04881 0.577612,1.227241 1.914864,4.397418 1.036165,2.45641 1.889887,4.48185 1.897158,4.50098 0.0074,0.0195 -0.529997,0.0348 -1.221626,0.0348 h -1.234846 z m -9.380748,-7.059813 -0.0012,-7.129217 h 2.99681 c 1.648246,0 2.988714,0.01339 2.978818,0.02975 -0.0099,0.01636 -1.342631,3.197737 -2.961632,7.069724 -1.619002,3.871986 -2.958927,7.066746 -2.977612,7.099466 -0.01895,0.0332 -0.0345,-3.0924 -0.03518,-7.069719 z m 13.200499,-0.02796 -2.960497,-7.081429 2.956938,-0.01017 c 1.626316,-0.0056 2.963051,-0.0041 2.970522,0.0034 0.0075,0.0075 0.0091,3.198691 0.0036,7.091599 l -0.01002,7.078013 z m 5.193955,-4.788305 c 0.02863,-0.01146 0.06284,-0.01005 0.07602,0.0031 0.01318,0.01318 -0.01025,0.02255 -0.05206,0.02083 -0.0462,-0.0019 -0.0556,-0.0113 -0.02396,-0.02396 z m -0.421344,-1.091013 c -0.0041,-0.342283 0.0059,-0.630659 0.02225,-0.640835 0.01636,-0.01018 0.02504,0.171711 0.0193,0.404193 -0.01928,0.779869 -0.03399,0.863671 -0.04154,0.236642 z m 0.29988,-0.09802 c 0.02727,-0.011 0.07189,-0.011 0.09916,0 0.02727,0.011 0.005,0.02001 -0.04958,0.02001 -0.05453,0 -0.07684,-0.009 -0.04958,-0.02001 z"
         id="path1039" />
      <path
         style="fill:#606060;fill-opacity:1;stroke-width:0.0396618"
         d="m 39.476402,114.41176 c 0.0019,-0.0462 0.0113,-0.0556 0.02396,-0.024 0.01146,0.0286 0.01005,0.0628 -0.0031,0.076 -0.01318,0.0132 -0.02255,-0.0102 -0.02083,-0.052 z m 8.752221,-0.12212 c 0.02727,-0.011 0.07189,-0.011 0.09916,0 0.02727,0.011 0.005,0.02 -0.04958,0.02 -0.05454,0 -0.07684,-0.009 -0.04958,-0.02 z m -0.614759,-0.91485 c 0.0818,-0.009 0.215662,-0.009 0.297464,0 0.0818,0.009 0.01487,0.0156 -0.148732,0.0156 -0.163605,0 -0.230534,-0.007 -0.148732,-0.0156 z m -4.801266,-0.26857 c 8.09e-4,-0.0654 0.0097,-0.0874 0.01975,-0.0488 0.01006,0.0386 0.0094,0.0921 -0.0015,0.11898 -0.01086,0.0269 -0.01909,-0.005 -0.01828,-0.0702 z m -5.197172,-0.13881 c 0,-0.0545 0.009,-0.0769 0.02,-0.0496 0.011,0.0273 0.011,0.0719 0,0.0992 -0.011,0.0273 -0.02,0.005 -0.02,-0.0496 z M 50.542057,93.827259 c 0.0019,-0.0462 0.0113,-0.0556 0.02396,-0.02396 0.01146,0.02863 0.01005,0.06284 -0.0031,0.07602 -0.01318,0.01318 -0.02255,-0.01025 -0.02083,-0.05206 z"
         id="path1037" />
      <path
         style="fill:#494949;fill-opacity:1;stroke-width:0.0396618"
         d="m 42.2496,114.69755 c 0,-0.008 0.03123,-0.0395 0.06941,-0.0694 0.06291,-0.0493 0.06431,-0.0479 0.01498,0.015 -0.05181,0.0661 -0.08438,0.0871 -0.08438,0.0544 z m 6.000302,-1.32322 c 0.126227,-0.008 0.322553,-0.008 0.43628,1.6e-4 0.113727,0.008 0.01045,0.0144 -0.229503,0.0144 -0.239955,-8e-5 -0.333004,-0.007 -0.206777,-0.0145 z M 46.53621,113.2219 c 0.0019,-0.0462 0.0113,-0.0556 0.02396,-0.024 0.01146,0.0286 0.01005,0.0628 -0.0031,0.076 -0.01318,0.0132 -0.02255,-0.0102 -0.02083,-0.0521 z m 2.704677,-0.29416 c 0,-0.0982 0.0077,-0.13832 0.01719,-0.0892 0.0095,0.0491 0.0095,0.1294 0,0.17848 -0.0095,0.0491 -0.01719,0.009 -0.01719,-0.0892 z m -2.192204,-1.36347 c 0,-0.008 0.03123,-0.0395 0.06941,-0.0694 0.06291,-0.0493 0.06431,-0.0479 0.01497,0.015 -0.05181,0.0661 -0.08438,0.0871 -0.08438,0.0544 z m -1.393224,-0.17342 c -0.04933,-0.0629 -0.04793,-0.0643 0.01497,-0.015 0.03817,0.0299 0.06941,0.0612 0.06941,0.0694 0,0.0326 -0.03257,0.0116 -0.08438,-0.0544 z"
         id="path1035" />
      <path
         style="fill:#333333;fill-opacity:1;stroke-width:0.0396618"
         d="m 37.618507,114.99099 c -0.07121,-0.0169 -0.19791,-0.076 -0.281557,-0.13135 -0.695918,-0.46054 -0.856691,-2.30714 -0.279219,-3.20705 0.341676,-0.53246 0.981213,-0.65798 1.354585,-0.26587 l 0.148732,0.1562 v -0.95356 -0.95355 h 0.456111 0.456111 v 2.3539 c 0,1.29464 0.01154,2.49044 0.02565,2.65734 l 0.02565,0.30345 H 39.1235 38.722428 l -0.02631,-0.19831 c -0.01447,-0.10907 -0.02953,-0.19831 -0.03346,-0.19831 -0.0039,0 -0.09674,0.0863 -0.20624,0.19189 -0.259212,0.24985 -0.509541,0.32311 -0.837911,0.24522 z m 0.736822,-0.80422 c 0.0328,-0.0271 0.09212,-0.12073 0.13181,-0.20799 0.06091,-0.1339 0.0723,-0.26754 0.07304,-0.85672 9.36e-4,-0.74902 -0.02561,-0.89912 -0.190425,-1.07679 -0.22712,-0.24484 -0.536602,-0.0818 -0.666513,0.35109 -0.09974,0.33238 -0.09846,1.10131 0.0024,1.41477 0.09513,0.29576 0.29295,0.48441 0.47069,0.44886 0.06567,-0.0131 0.146238,-0.0461 0.179041,-0.0732 z m 2.711802,0.78347 c -0.544698,-0.15267 -0.877547,-0.59751 -0.99674,-1.33212 -0.0933,-0.575 -0.02535,-1.21314 0.175994,-1.65294 0.156909,-0.34273 0.34372,-0.54319 0.64394,-0.69099 0.228497,-0.11249 0.305843,-0.13035 0.564372,-0.13035 0.855443,0 1.351131,0.70482 1.349582,1.91898 -9.44e-4,0.73927 -0.148168,1.1944 -0.504023,1.55811 -0.317639,0.32466 -0.794943,0.45212 -1.233125,0.32931 z m 0.510695,-0.69532 c 0.400103,-0.21413 0.420407,-2.0817 0.02564,-2.35821 -0.180924,-0.12672 -0.383878,-0.0574 -0.500318,0.1708 -0.219404,0.43007 -0.219636,1.56723 -4.08e-4,1.99696 0.111715,0.21898 0.288994,0.29004 0.475088,0.19045 z m 3.110977,0.7073 c -0.136155,-0.0473 -0.405068,-0.29034 -0.438782,-0.39656 -0.03701,-0.11661 -0.09661,-0.0814 -0.09719,0.0575 -0.0013,0.30502 -0.0047,0.30738 -0.445554,0.30738 h -0.397182 l 0.02458,-0.14873 c 0.01352,-0.0818 0.02478,-1.27761 0.02502,-2.65735 l 4.36e-4,-2.50861 h 0.456112 0.456111 v 0.97172 c 0,0.53444 0.0057,0.97171 0.01273,0.97171 0.007,0 0.09418,-0.078 0.193731,-0.17342 0.131715,-0.12621 0.236528,-0.18675 0.384955,-0.22236 0.516225,-0.12384 0.919794,0.16172 1.133021,0.8017 0.218679,0.65634 0.174224,1.71622 -0.09708,2.31457 -0.247587,0.54604 -0.764718,0.8375 -1.210914,0.68249 z m 0.284347,-0.83127 c 0.170007,-0.15971 0.231257,-0.43641 0.231257,-1.04473 0,-0.64308 -0.04688,-0.84804 -0.237558,-1.03873 -0.174532,-0.17453 -0.341269,-0.17815 -0.497598,-0.0108 -0.165248,0.1769 -0.206863,0.43169 -0.190854,1.16852 0.01264,0.58198 0.02162,0.64825 0.108228,0.79941 0.05194,0.0906 0.132258,0.18384 0.178478,0.20708 0.114749,0.0577 0.299629,0.0211 0.408047,-0.0808 z m 2.565475,0.75747 c -0.641823,-0.20344 -0.97261,-0.81733 -0.969682,-1.79956 0.0021,-0.69258 0.16156,-1.16738 0.519167,-1.54549 0.27926,-0.29528 0.522316,-0.39921 0.932288,-0.39866 0.275488,3.6e-4 0.345115,0.0157 0.528437,0.11621 0.480382,0.26344 0.68125,0.74776 0.68125,1.64259 v 0.46779 l -0.898577,-0.0192 -0.898577,-0.0192 0.02383,0.20117 c 0.07032,0.59378 0.483864,0.84625 1.160205,0.70832 0.16926,-0.0345 0.31991,-0.0552 0.334778,-0.0461 0.04876,0.0301 0.130288,0.58081 0.0917,0.6194 -0.06824,0.0682 -0.585513,0.15308 -0.923892,0.15153 -0.220473,-10e-4 -0.421487,-0.0283 -0.580928,-0.0788 z m 0.849429,-2.42804 c -0.04574,-0.56987 -0.384488,-0.83275 -0.685363,-0.53187 -0.129324,0.12932 -0.188836,0.28052 -0.24102,0.61236 l -0.02651,0.16856 h 0.486442 0.486441 z m -15.181355,2.4484 c 0,-0.0134 0.249869,-1.16497 0.555265,-2.55911 0.305397,-1.39415 0.555266,-2.5439 0.555266,-2.55501 0,-0.0111 0.24953,-0.0202 0.554511,-0.0202 0.542268,0 0.554982,0.002 0.575901,0.0892 0.02253,0.094 1.011328,5.03734 1.011328,5.05598 0,0.006 -0.202057,0.0108 -0.449016,0.0108 h -0.449016 l -0.116165,-0.6147 -0.116166,-0.61469 -0.501578,-8e-5 -0.501578,-8e-5 -0.11499,0.60484 -0.11499,0.60485 -0.444386,0.0112 c -0.244413,0.006 -0.444386,3.1e-4 -0.444386,-0.0131 z m 2.011072,-2.03078 c -0.01742,-0.088 -0.225654,-1.40373 -0.329966,-2.08492 -0.01275,-0.0833 -0.03045,-0.14414 -0.03933,-0.13526 -0.0089,0.009 -0.07766,0.38043 -0.152834,0.82566 -0.07518,0.44523 -0.164298,0.95229 -0.198047,1.1268 -0.03375,0.17451 -0.06136,0.33068 -0.06137,0.34704 -4e-6,0.0164 0.180702,0.0297 0.401569,0.0297 h 0.401576 z M 51.133597,94.923869 c -0.322678,-0.09815 -0.627949,-0.398768 -0.736341,-0.725107 -0.08406,-0.253067 -0.0598,-0.624548 0.05555,-0.850639 0.352864,-0.691672 1.309506,-0.83256 1.828685,-0.269319 0.219345,0.237962 0.291081,0.421274 0.294742,0.753174 0.0072,0.650183 -0.476714,1.135498 -1.12223,1.12554 -0.121544,-0.0019 -0.265725,-0.01702 -0.320401,-0.03365 z m 0.607907,-0.164112 c 0.08335,-0.02314 0.224526,-0.107822 0.313733,-0.188173 0.636962,-0.573727 0.253265,-1.671331 -0.584258,-1.671331 -0.828778,0 -1.225222,1.039989 -0.619864,1.626087 0.263028,0.25466 0.546382,0.328942 0.890389,0.233417 z M 51.05453,93.870982 v -0.614003 l 0.100599,-0.02525 c 0.05533,-0.01389 0.20973,-0.01736 0.34311,-0.0077 0.203205,0.0147 0.257609,0.0351 0.33568,0.12586 0.126115,0.146617 0.118255,0.283222 -0.02451,0.425986 -0.08709,0.08709 -0.103353,0.123178 -0.06256,0.138832 0.06613,0.02537 0.09367,0.0879 0.159494,0.36206 l 0.04999,0.208225 h -0.110966 c -0.102583,0 -0.114391,-0.01649 -0.156278,-0.218263 -0.04925,-0.237214 -0.112876,-0.297341 -0.314662,-0.297341 h -0.121593 v 0.257802 c 0,0.248547 -0.0036,0.257802 -0.09916,0.257802 h -0.09915 z m 0.602449,-0.178674 c 0.124444,-0.153682 -0.0063,-0.317855 -0.253073,-0.317855 h -0.151067 v 0.223362 0.223363 l 0.168157,-0.02255 c 0.102989,-0.01381 0.194443,-0.05502 0.235983,-0.106315 z"
         id="path1033" />
    </g>
    <path
       id="rect1072"
       style="fill:none;fill-opacity:0;stroke:#bebebe;stroke-width:1.065"
       d="m 145.94846,92.536079 h 16.4264 v 16.670101 h -16.4264 z" />
    <g
       aria-label="Ag"
       id="text5036"
       style="font-size:10.5833px;line-height:1.25;font-family:'Anonymous Pro';-inkscape-font-specification:'Anonymous Pro';fill:#999292;stroke-width:0.264583">
      <path
         d="m 154.10902,104.25812 q -0.47542,0 -0.82682,-1.21956 -0.13435,-0.46509 -0.33589,-1.62781 -0.5271,0.0724 -1.37976,0.25839 l -1.37459,0.28422 q -0.25838,0.67695 -0.88366,1.9792 -0.16537,0.28938 -0.44958,0.28938 -0.20671,0 -0.37207,-0.14986 -0.1602,-0.14986 -0.1602,-0.37207 0,-0.24804 0.78031,-1.88618 -0.0879,-0.13436 -0.0879,-0.31006 0,-0.41858 0.50643,-0.53743 0.58911,-1.105873 1.48828,-2.542473 1.22472,-1.958531 1.52445,-1.958531 0.40824,0 0.5581,0.568439 l 0.32556,1.736323 0.76998,3.591502 0.29455,0.81648 q 0.14986,0.41858 0.14986,0.55811 0,0.2222 -0.16019,0.37207 -0.1602,0.14986 -0.36691,0.14986 z m -1.82417,-5.9066 -1.47794,2.38228 q 0.62528,-0.1602 1.89652,-0.38758 z"
         style="font-family:'Comic Sans MS';-inkscape-font-specification:'Comic Sans MS'"
         id="path978" />
      <path
         d="m 160.36185,101.87584 -0.11885,1.73632 q -0.031,1.03353 -0.21188,1.68982 -0.23254,0.83715 -0.74413,1.23506 -0.62012,0.48059 -1.79317,0.48059 -0.68729,0 -1.15238,-0.093 -0.65112,-0.12919 -0.65112,-0.53743 0,-0.45992 0.44958,-0.45992 0.18604,0 0.62012,0.0879 0.43408,0.093 0.96118,0.0827 0.99218,-0.0155 1.36942,-0.96118 0.24804,-0.63045 0.26355,-1.93786 -0.27906,0.51677 -0.66663,0.77515 -0.3824,0.25838 -0.8785,0.25838 -0.93534,0 -1.52445,-0.63562 -0.58394,-0.64078 -0.58394,-1.65881 0,-1.39526 0.80099,-2.247915 0.82682,-0.878496 2.25308,-0.878496 0.48059,0 0.80615,0.124023 0.32556,0.124023 0.49609,0.372069 0.55294,0.0155 0.55294,0.614947 0,0.366902 -0.10852,0.981852 -0.11886,0.71313 -0.13953,0.97151 z m -1.65881,-2.237581 q -0.98184,0 -1.51928,0.676961 -0.48059,0.60978 -0.48059,1.55029 0,0.7493 0.28422,1.12654 0.28422,0.37724 0.85266,0.37724 0.52193,0 1.01286,-0.58911 0.44441,-0.5426 0.50642,-1.07487 0.10852,-0.5581 0.23255,-1.751826 -0.20671,-0.160196 -0.42892,-0.237711 -0.2222,-0.07751 -0.45992,-0.07751 z"
         style="font-family:'Comic Sans MS';-inkscape-font-specification:'Comic Sans MS'"
         id="path980" />
    </g>
    <path
       id="rect1072-1"
       style="fill:none;fill-opacity:0;stroke:#bebebe;stroke-width:1.065"
       d="m 162.37486,75.865974 h 16.4264 v 16.670105 h -16.4264 z" />
    <g
       aria-label="Ag"
       id="text5036-9"
       style="font-size:10.5833px;line-height:1.25;font-family:'Anonymous Pro';-inkscape-font-specification:'Anonymous Pro';fill:#999292;stroke-width:0.264583">
      <path
         d="m 170.57851,87.432983 h -0.75964 l -0.63562,-1.927524 h -2.66649 l -0.62529,1.927524 h -0.75964 l 2.24275,-6.743753 h 0.96118 z m -1.5968,-2.552807 -1.13171,-3.477813 -1.13171,3.477813 z"
         id="path984" />
      <path
         d="m 175.77714,87.381307 q 0,0.496092 -0.17053,0.883664 -0.17053,0.387572 -0.48059,0.656289 -0.30489,0.268717 -0.72347,0.408242 -0.41341,0.144694 -0.925,0.144694 -0.7183,0 -1.22473,-0.268717 -0.50126,-0.268716 -0.86816,-0.775144 l 0.49609,-0.382404 q 0.22221,0.335896 0.64079,0.563271 0.41858,0.227376 0.95601,0.227376 0.7338,0 1.15755,-0.372069 0.42891,-0.366902 0.42891,-1.064531 v -0.516763 q -0.63045,0.558104 -1.4366,0.558104 -1.13171,0 -1.77766,-0.645954 -0.64596,-0.645953 -0.64596,-1.767328 0,-0.547768 0.16537,-1.007687 0.17053,-0.465087 0.48059,-0.800982 0.31522,-0.341064 0.76481,-0.527098 0.44958,-0.191203 1.01285,-0.191203 0.39274,0 0.75964,0.139526 0.37207,0.134359 0.67696,0.408243 v -0.434081 h 0.71313 z m -0.71313,-3.643177 q -0.30489,-0.335895 -0.67179,-0.485757 -0.36173,-0.149861 -0.76481,-0.149861 -0.42375,0 -0.74931,0.149861 -0.32039,0.149862 -0.53226,0.408243 -0.21187,0.258381 -0.32556,0.614947 -0.10852,0.351399 -0.10852,0.754474 0,0.82682 0.42891,1.317745 0.42891,0.490924 1.28674,0.490924 0.40308,0 0.76481,-0.149861 0.3669,-0.155029 0.67179,-0.496092 z"
         id="path986" />
    </g>
    <path
       id="rect1072-4"
       style="fill:none;fill-opacity:0;stroke:#bebebe;stroke-width:1.065"
       d="m 162.37486,109.20618 h 16.4264 v 16.6701 h -16.4264 z" />
    <g
       aria-label="Ag"
       id="text5036-5"
       style="font-size:10.5833px;line-height:1.25;font-family:'Anonymous Pro';-inkscape-font-specification:'Anonymous Pro';fill:#999292;stroke-width:0.264583">
      <path
         d="m 171.39842,120.77319 h -1.14204 l -0.81649,-2.19107 h -3.33312 l -0.76997,2.19107 h -1.14205 l 3.0489,-8.00465 h 1.10587 z m -2.27892,-3.09541 -1.20922,-3.32795 q -0.0568,-0.16019 -0.12403,-0.5581 h -0.0258 q -0.0568,0.36173 -0.1292,0.5581 l -1.19888,3.32795 z"
         style="font-family:'Microsoft YaHei';-inkscape-font-specification:'Microsoft YaHei'"
         id="path990" />
      <path
         d="m 177.3877,120.2926 q 0,3.17293 -3.0799,3.17293 -1.06453,0 -1.85001,-0.39791 v -0.97668 q 0.95601,0.53226 1.83451,0.53226 2.08255,0 2.08255,-2.19107 v -0.60461 h -0.0207 q -0.65112,1.08003 -1.94303,1.08003 -1.07487,0 -1.72082,-0.76997 -0.64595,-0.76998 -0.64595,-2.04122 0,-1.46244 0.71313,-2.31509 0.71313,-0.85783 1.90169,-0.85783 1.14204,0 1.69498,0.9095 h 0.0207 v -0.77514 h 1.01285 z m -1.01285,-2.91971 q 0.005,-0.66145 -0.44442,-1.13687 -0.44958,-0.47542 -1.10587,-0.47542 -0.82682,0 -1.28674,0.60978 -0.45992,0.60461 -0.45992,1.66397 0,0.9095 0.44442,1.47277 0.44442,0.56328 1.17822,0.56328 0.73897,0 1.20922,-0.53744 0.47026,-0.53743 0.46509,-1.36425 z"
         style="font-family:'Microsoft YaHei';-inkscape-font-specification:'Microsoft YaHei'"
         id="path992" />
    </g>
    <path
       id="rect1072-7"
       style="fill:none;fill-opacity:0;stroke:#bebebe;stroke-width:1.065"
       d="m 162.37486,92.536079 h 16.4264 v 16.670101 h -16.4264 z" />
    <g
       aria-label="Ag"
       id="text5036-94"
       style="font-size:10.5833px;line-height:1.25;font-family:'Anonymous Pro';-inkscape-font-specification:'Anonymous Pro';fill:#999292;stroke-width:0.264583">
      <path
         d="m 168.3125,96.759891 2.29442,6.320009 q 0.12919,0.35656 0.23255,0.48576 0.10852,0.12402 0.30489,0.18603 l 0.48575,0.14469 0.0103,0.22221 q -0.67696,-0.0155 -1.25573,-0.0155 -0.58911,0 -1.3901,0.0155 l -0.0207,-0.22221 0.49093,-0.14469 q 0.10335,-0.0362 0.14469,-0.0775 0.0465,-0.0465 0.0465,-0.13953 0,-0.10335 -0.0568,-0.26872 -0.0517,-0.17053 -0.14986,-0.44958 l -0.48576,-1.38492 h -2.4908 l -0.5426,1.37975 q -0.10852,0.28939 -0.17053,0.45992 -0.062,0.17053 -0.062,0.26872 0,0.0878 0.0465,0.13436 0.0517,0.0413 0.14986,0.0723 l 0.48059,0.13953 0.0103,0.23254 q -0.7338,-0.0155 -1.19889,-0.0155 -0.46508,0 -1.03869,0.0155 l -0.0258,-0.22221 0.52193,-0.16019 q 0.19637,-0.062 0.28939,-0.19121 0.093,-0.12919 0.2067,-0.40307 l 2.64066,-6.304505 z m -1.64848,4.201279 h 2.12907 l -1.00769,-2.847361 z"
         style="font-family:Constantia;-inkscape-font-specification:Constantia"
         id="path996" />
      <path
         d="m 173.03571,100.89399 q 0,0.67179 0.26872,1.0387 0.27388,0.3669 0.79064,0.3669 0.49609,0 0.74414,-0.34107 0.25321,-0.34623 0.25321,-1.00768 0,-0.63562 -0.26871,-1.002524 -0.26355,-0.366901 -0.79065,-0.366901 -0.49609,0 -0.74931,0.335896 -0.24804,0.335899 -0.24804,0.976679 z m -0.0672,3.4158 q -0.3514,0.5271 -0.3514,0.97152 0,0.45475 0.3669,0.70796 0.3669,0.25322 0.99735,0.25322 0.74931,0 1.31258,-0.3359 0.56327,-0.33073 0.56327,-0.93017 0,-0.32556 -0.27905,-0.50643 -0.27388,-0.1757 -1.03869,-0.1757 -0.27389,0 -0.59945,0.0155 -0.32039,0.0155 -0.62011,0.0155 -0.16537,0 -0.3514,-0.0155 z m 2.6975,-4.464826 q 0.38757,0.428916 0.38757,1.023186 0,0.83199 -0.57877,1.32808 -0.57878,0.49093 -1.4521,0.49093 -0.4961,0 -0.88884,-0.15503 -0.27905,0.44958 -0.27905,0.70796 0,0.13953 0.13953,0.19121 0.14469,0.0465 0.5271,0.0465 0.28938,0 0.67695,-0.0155 0.38758,-0.0155 0.72347,-0.0155 0.82166,0 1.29708,0.31523 0.48059,0.31005 0.48059,0.925 0,0.93017 -0.8785,1.46761 -0.87333,0.53743 -1.98954,0.53743 -0.91467,0 -1.46244,-0.31006 -0.5426,-0.30489 -0.5426,-0.79581 0,-0.59428 0.84233,-1.33325 -0.53227,-0.20154 -0.53227,-0.53743 0,-0.47026 0.73897,-1.31258 -0.80615,-0.49093 -0.80615,-1.4211 0,-0.80615 0.56844,-1.297073 0.57361,-0.490924 1.47794,-0.490924 0.23771,0 0.64596,0.06201 0.38757,0.07235 0.60461,0.07235 0.78031,0 1.4366,-0.0155 l 0.0258,0.211873 z"
         style="font-family:Constantia;-inkscape-font-specification:Constantia"
         id="path998" />
    </g>
    <path
       id="rect1072-3"
       style="fill:none;fill-opacity:0;stroke:#bebebe;stroke-width:1.065"
       d="m 145.94846,109.20618 h 16.4264 v 16.6701 h -16.4264 z" />
    <g
       aria-label="Ag"
       id="text5036-1"
       style="font-size:10.5833px;line-height:1.25;font-family:'Anonymous Pro';-inkscape-font-specification:'Anonymous Pro';fill:#999292;stroke-width:0.264583">
      <path
         d="m 155.03747,119.75257 h -0.96117 l -0.78548,-2.07738 h -3.14192 l -0.73897,2.07738 h -0.96635 l 2.8422,-7.41038 h 0.89916 z m -2.03087,-2.8577 -1.16272,-3.15742 q -0.0568,-0.15503 -0.11369,-0.49609 h -0.0207 q -0.0517,0.31523 -0.11885,0.49609 l -1.15238,3.15742 z"
         style="font-family:Gadugi;-inkscape-font-specification:Gadugi"
         id="path1002" />
      <path
         d="m 160.53066,119.32883 q 0,2.91454 -2.79052,2.91454 -0.98185,0 -1.71565,-0.37207 v -0.84749 q 0.894,0.49609 1.70532,0.49609 1.95336,0 1.95336,-2.07739 v -0.57877 h -0.0207 q -0.60461,1.01285 -1.819,1.01285 -0.98702,0 -1.59163,-0.70279 -0.59945,-0.70797 -0.59945,-1.89652 0,-1.34875 0.64596,-2.14457 0.65112,-0.79581 1.77766,-0.79581 1.0697,0 1.58646,0.85782 h 0.0207 v -0.7338 h 0.84749 z m -0.84749,-1.96887 v -0.78031 q 0,-0.63045 -0.42891,-1.08004 -0.42375,-0.44958 -1.05937,-0.44958 -0.78547,0 -1.22989,0.57361 -0.44442,0.56844 -0.44442,1.59679 0,0.88367 0.42375,1.41593 0.42891,0.5271 1.13171,0.5271 0.71313,0 1.15755,-0.50643 0.44958,-0.50642 0.44958,-1.29707 z"
         style="font-family:Gadugi;-inkscape-font-specification:Gadugi"
         id="path1004" />
    </g>
    <path
       id="rect1072-79"
       style="fill:none;fill-opacity:0;stroke:#bebebe;stroke-width:1.065"
       d="m 178.80127,92.536079 h 16.4264 v 16.670101 h -16.4264 z" />
    <g
       aria-label="Ag"
       id="text5036-2"
       style="font-size:10.5833px;line-height:1.25;font-family:'Anonymous Pro';-inkscape-font-specification:'Anonymous Pro';fill:#999292;stroke-width:0.264583">
      <path
         d="m 184.15926,96.929569 h 0.89917 l 2.76985,7.513731 h -1.13688 l -2.08255,-6.061628 -2.08256,6.061628 h -1.13688 z m -1.49344,4.862741 h 3.95323 v 1.00252 h -3.95323 z"
         style="font-family:Bahnschrift;-inkscape-font-specification:Bahnschrift"
         id="path1008" />
      <path
         d="m 190.66014,106.62404 q -0.60462,0 -1.08521,-0.22738 -0.47542,-0.22221 -0.73897,-0.63045 v 0 l 0.71314,-0.64595 v 0 q 0.2067,0.28422 0.49092,0.43925 0.28939,0.15502 0.60461,0.15502 0.60462,0 0.93534,-0.33589 0.33073,-0.33073 0.33073,-0.94051 v -5.358828 h 1.0542 v 5.203798 q 0,0.73897 -0.27389,1.26607 -0.26871,0.5271 -0.78548,0.80098 -0.51676,0.27389 -1.24539,0.27389 z m -0.0982,-2.08772 q -0.58911,0 -1.00769,-0.25322 -0.41341,-0.25838 -0.63045,-0.7493 -0.21704,-0.49093 -0.21704,-1.17822 v -1.18339 q 0,-0.69246 0.21188,-1.183386 0.21187,-0.490924 0.61494,-0.744138 0.40825,-0.258382 0.97668,-0.258382 0.47543,0 0.86817,0.248047 0.3979,0.248046 0.64078,0.697629 l -0.10852,1.09554 q 0,-0.34107 -0.12402,-0.58394 -0.12402,-0.24288 -0.36174,-0.36691 -0.23254,-0.129187 -0.56843,-0.129187 -0.52193,0 -0.81132,0.325557 -0.28422,0.32556 -0.28422,0.91467 v 1.16789 q 0,0.58394 0.28422,0.90433 0.28939,0.31523 0.81132,0.31523 0.33589,0 0.56843,-0.12919 0.23772,-0.13436 0.36174,-0.38241 0.12402,-0.24804 0.12402,-0.59428 l 0.0724,1.13172 q -0.1602,0.3979 -0.5271,0.66662 -0.36173,0.26872 -0.894,0.26872 z"
         style="font-family:Bahnschrift;-inkscape-font-specification:Bahnschrift"
         id="path1010" />
    </g>
    <g
       id="g1273"
       transform="matrix(0.77960651,0,0,0.77960651,19.75051,17.850493)">
      <path
         style="fill:#d0d0d0;fill-opacity:1;stroke-width:0.0405118"
         d="m 112.06785,114.57989 c 0,-0.008 0.0319,-0.0403 0.0709,-0.0709 0.0643,-0.0504 0.0657,-0.049 0.0153,0.0153 -0.0529,0.0675 -0.0862,0.0889 -0.0862,0.0556 z m -3.26224,-9.12012 c 1e-5,-1.62654 0.005,-2.28605 0.0112,-1.46556 0.006,0.82048 0.006,2.1513 0,2.95736 -0.006,0.80606 -0.0112,0.13475 -0.0112,-1.4918 z m -10.252293,-3.43337 -0.07717,-0.0911 0.09115,0.0772 c 0.08566,0.0725 0.109594,0.10513 0.07717,0.10513 -0.0077,0 -0.04871,-0.041 -0.09115,-0.0911 z"
         id="path1281" />
      <path
         style="fill:#b9b9b9;fill-opacity:1;stroke-width:0.0405118"
         d="m 94.845171,114.52429 c -0.05039,-0.0643 -0.04896,-0.0657 0.0153,-0.0153 0.03899,0.0306 0.0709,0.0625 0.0709,0.0709 0,0.0333 -0.03327,0.0119 -0.08619,-0.0556 z m 8.180949,-5.95253 c 0.0292,-0.0117 0.0642,-0.0103 0.0776,0.003 0.0135,0.0135 -0.0105,0.023 -0.0532,0.0213 -0.0472,-0.002 -0.0568,-0.0115 -0.0245,-0.0245 z m 0.52666,0 c 0.0292,-0.0117 0.0642,-0.0103 0.0776,0.003 0.0135,0.0135 -0.0105,0.023 -0.0532,0.0213 -0.0472,-0.002 -0.0568,-0.0115 -0.0245,-0.0245 z M 94.830082,97.215626 c 0.04033,-0.04456 0.08244,-0.08102 0.09358,-0.08102 0.01114,0 -0.01274,0.03646 -0.05307,0.08102 -0.04033,0.04456 -0.08244,0.08102 -0.09358,0.08102 -0.01114,0 0.01274,-0.03646 0.05307,-0.08102 z"
         id="path1279" />
      <path
         style="fill:#a3a3a3;fill-opacity:1;stroke-width:0.0405118"
         d="m 94.249058,113.17727 c 0,-0.0557 0.0092,-0.0785 0.02043,-0.0506 0.01124,0.0279 0.01124,0.0734 0,0.10128 -0.01124,0.0279 -0.02043,0.005 -0.02043,-0.0506 z m 18.473372,0 c 0,-0.0557 0.009,-0.0785 0.0204,-0.0506 0.0112,0.0279 0.0112,0.0734 0,0.10128 -0.0112,0.0279 -0.0204,0.005 -0.0204,-0.0506 z m -13.804507,-1.38753 -0.07717,-0.0911 0.09115,0.0772 c 0.08566,0.0725 0.109595,0.10513 0.07717,0.10513 -0.0077,0 -0.04871,-0.041 -0.09115,-0.0911 z m 1.459537,-1.48881 c 0,-0.54589 0.006,-0.76921 0.0127,-0.49627 0.007,0.27295 0.007,0.71959 0,0.99254 -0.007,0.27295 -0.0127,0.0496 -0.0127,-0.49627 z m 2.7702,-1.72917 c 0.0292,-0.0117 0.0642,-0.0103 0.0776,0.003 0.0135,0.0135 -0.0105,0.023 -0.0532,0.0213 -0.0472,-0.002 -0.0568,-0.0115 -0.0245,-0.0245 z m 0.24054,8.5e-4 c 0.0279,-0.0112 0.0734,-0.0112 0.10128,0 0.0279,0.0112 0.005,0.0204 -0.0506,0.0204 -0.0557,0 -0.0785,-0.009 -0.0506,-0.0204 z m 5.312,-6.24237 c -0.0504,-0.0643 -0.049,-0.0657 0.0153,-0.0153 0.0675,0.0529 0.0889,0.0862 0.0556,0.0862 -0.008,0 -0.0403,-0.0319 -0.0709,-0.0709 z m -5.73661,-0.11923 c 0.0394,-0.0103 0.0941,-0.01 0.12154,0.002 0.0274,0.0111 -0.005,0.0195 -0.0717,0.0187 -0.0668,-8.2e-4 -0.0893,-0.01 -0.0499,-0.0202 z m 0.2423,1.7e-4 c 0.039,-0.0102 0.1028,-0.0102 0.14179,0 0.039,0.0102 0.007,0.0185 -0.0709,0.0185 -0.078,0 -0.10989,-0.008 -0.0709,-0.0185 z m 5.2083,2.4e-4 c 0.0292,-0.0117 0.0642,-0.0103 0.0776,0.003 0.0135,0.0135 -0.0105,0.023 -0.0532,0.0213 -0.0472,-0.002 -0.0568,-0.0115 -0.0245,-0.0245 z m 4.30504,-3.642025 c 0.002,-0.04719 0.0115,-0.05679 0.0245,-0.02448 0.0117,0.02925 0.0103,0.06419 -0.003,0.07765 -0.0135,0.01346 -0.023,-0.01047 -0.0213,-0.05317 z m -18.47337,-0.08102 c 0.0019,-0.04719 0.01154,-0.05679 0.02448,-0.02447 0.0117,0.02924 0.01026,0.06418 -0.0032,0.07765 -0.01346,0.01346 -0.02304,-0.01047 -0.02128,-0.05317 z"
         id="path1277" />
      <path
         style="fill:#8c8c8c;fill-opacity:1;stroke-width:0.0405118"
         d="m 95.854287,115.05892 c -0.69465,-0.1684 -1.26429,-0.69611 -1.499842,-1.38943 l -0.09153,-0.2694 -0.0119,-7.33264 c -0.008,-4.91769 0.002,-7.437897 0.03028,-7.652256 0.111941,-0.848208 0.749476,-1.547712 1.591553,-1.746251 0.387006,-0.09125 14.872062,-0.08993 15.259452,0.0014 0.70187,0.165441 1.23641,0.654661 1.49873,1.371655 l 0.10526,0.287716 v 7.514936 c 0,7.17696 -0.003,7.52587 -0.0744,7.758 -0.22538,0.73628 -0.83312,1.30662 -1.55539,1.45967 -0.40243,0.0853 -14.899749,0.0821 -15.2522,-0.003 z m 4.040116,-3.09153 c 0.232367,-0.10556 0.408307,-0.32342 0.461497,-0.57144 0.025,-0.11666 0.0446,-0.61271 0.0446,-1.13142 v -0.92367 l 0.4423,-0.18769 c 0.85503,-0.36283 1.70835,-0.55708 2.4543,-0.55868 0.5489,-10e-4 0.86329,0.067 1.61737,0.35079 0.31364,0.11804 0.68475,0.23683 0.82468,0.26399 0.37422,0.0726 1.11787,0.0286 1.57543,-0.0932 0.52473,-0.13975 1.26021,-0.43632 1.39679,-0.56323 l 0.11558,-0.1074 v -2.99286 c 0,-3.30599 0.0149,-3.12164 -0.25879,-3.21196 -0.15046,-0.0496 -0.11114,-0.0614 -0.99041,0.29701 -0.56932,0.2321 -0.82907,0.30049 -1.26527,0.33312 -0.33841,0.0253 -0.34686,0.0236 -0.9025,-0.18288 -1.30943,-0.48662 -2.12011,-0.57698 -3.2544,-0.36277 -0.42961,0.0811 -1.11542,0.29279 -1.50048,0.46308 -0.12329,0.0545 -0.23101,0.0991 -0.23938,0.0991 -0.008,0 -0.0152,-0.15696 -0.0152,-0.3488 v -0.3488 l 0.19243,-0.21093 c 0.59479,-0.65197 0.39769,-1.70917 -0.40113,-2.151634 -0.201542,-0.111635 -0.246372,-0.120015 -0.642045,-0.120015 -0.394616,0 -0.440865,0.0086 -0.639616,0.118693 -0.395002,0.218836 -0.664591,0.591576 -0.730127,1.009506 -0.07051,0.44965 0.04921,0.84242 0.359321,1.17885 l 0.158662,0.17213 0.01063,4.66152 0.01063,4.66153 0.121535,0.17254 c 0.234275,0.33261 0.682589,0.45409 1.053654,0.28552 z"
         id="path1275" />
    </g>
  </g>
</svg>
