<?xml version="1.0" encoding="UTF-8" standalone="no"?>
<!-- Created with Inkscape (http://www.inkscape.org/) -->

<svg
   width="128mm"
   height="123.56457mm"
   viewBox="0 0 128 123.56457"
   version="1.1"
   id="svg10483"
   inkscape:version="1.1 (c68e22c387, 2021-05-23)"
   xmlns:inkscape="http://www.inkscape.org/namespaces/inkscape"
   xmlns:sodipodi="http://sodipodi.sourceforge.net/DTD/sodipodi-0.dtd"
   xmlns="http://www.w3.org/2000/svg"
   xmlns:svg="http://www.w3.org/2000/svg">
  <sodipodi:namedview
     id="namedview10485"
     pagecolor="#ffffff"
     bordercolor="#666666"
     borderopacity="1.0"
     inkscape:pageshadow="2"
     inkscape:pageopacity="0.0"
     inkscape:pagecheckerboard="0"
     inkscape:document-units="mm"
     showgrid="false"
     fit-margin-top="0"
     fit-margin-left="0"
     fit-margin-right="0"
     fit-margin-bottom="0"
     inkscape:zoom="0.77771465"
     inkscape:cx="252.02046"
     inkscape:cy="297.66702"
     inkscape:window-width="1715"
     inkscape:window-height="1081"
     inkscape:window-x="1247"
     inkscape:window-y="122"
     inkscape:window-maximized="0"
     inkscape:current-layer="layer1" />
  <defs
     id="defs10480" />
  <g
     inkscape:label="Layer 1"
     inkscape:groupmode="layer"
     id="layer1"
     transform="translate(-38.429549,-69.788295)">
    <g
       id="g10556"
       transform="matrix(1.1496534,0,0,1.1496534,-0.27544466,23.192198)"
       style="fill:#8c8c8c;fill-opacity:1">
      <path
         style="fill:#8c8c8c;fill-opacity:1;stroke-width:0.264583"
         d="m 103.04726,141.67315 c 0,-0.80036 0.0496,-1.12778 0.11022,-0.7276 0.0606,0.40018 0.0606,1.05503 0,1.45521 -0.0606,0.40018 -0.11022,0.0728 -0.11022,-0.72761 z m -27.520282,-0.39687 c 0.0021,-0.72761 0.05337,-0.99386 0.114187,-0.59168 0.06082,0.40219 0.05919,0.9975 -0.0036,1.32292 -0.0628,0.32542 -0.112559,-0.004 -0.110574,-0.73124 z m -6.756402,-12.47836 c 0.181901,-0.0734 0.479557,-0.0734 0.661458,0 0.181901,0.0734 0.03307,0.13346 -0.330729,0.13346 -0.363802,0 -0.51263,-0.0601 -0.330729,-0.13346 z M 53.816855,92.725236 c 0,-0.509323 0.05445,-0.717683 0.121001,-0.463021 0.06655,0.254661 0.06655,0.67138 0,0.926041 -0.06655,0.254662 -0.121001,0.0463 -0.121001,-0.46302 z m 70.867835,-0.15434 c 0.0127,-0.308226 0.0754,-0.370919 0.15986,-0.159853 0.0764,0.190995 0.067,0.4192 -0.0209,0.507119 -0.0879,0.08792 -0.15045,-0.06835 -0.13896,-0.347266 z"
         id="path10572" />
      <path
         style="fill:#8c8c8c;fill-opacity:1;stroke-width:0.264583"
         d="m 75.53599,144.0544 c 0,-0.94588 0.04802,-1.33284 0.106715,-0.85989 0.05869,0.47294 0.05869,1.24685 0,1.71979 -0.05869,0.47294 -0.106715,0.086 -0.106715,-0.8599 z m 27.51127,0.26459 c 0,-0.80037 0.0496,-1.12779 0.11022,-0.72761 0.0606,0.40018 0.0606,1.05503 0,1.45521 -0.0606,0.40018 -0.11022,0.0728 -0.11022,-0.7276 z M 53.797246,94.048152 c 0,-0.363802 0.06005,-0.51263 0.133453,-0.330729 0.0734,0.181901 0.0734,0.479557 0,0.661458 -0.0734,0.181902 -0.133453,0.03307 -0.133453,-0.330729 z m 70.927944,-0.264583 c 0,-0.509323 0.0545,-0.717682 0.121,-0.463021 0.0665,0.254662 0.0665,0.67138 0,0.926042 -0.0666,0.254661 -0.121,0.0463 -0.121,-0.463021 z m -0.0405,-2.006423 c 0.0127,-0.308226 0.0754,-0.370919 0.15986,-0.159853 0.0764,0.190995 0.067,0.4192 -0.0209,0.507119 -0.0879,0.08792 -0.15045,-0.06835 -0.13896,-0.347266 z"
         id="path10570" />
      <path
         style="fill:#8c8c8c;fill-opacity:1;stroke-width:0.264583"
         d="m 78.361722,120.67117 c 0,-0.0549 0.208359,-0.2633 0.463021,-0.46302 0.419645,-0.3291 0.429003,-0.31975 0.0999,0.0999 -0.345644,0.44073 -0.562917,0.58089 -0.562917,0.36312 z m -18.025418,-8.30062 c -0.329107,-0.41965 -0.319749,-0.429 0.0999,-0.0999 0.254661,0.19972 0.46302,0.40808 0.46302,0.46302 0,0.21777 -0.217273,0.0776 -0.562917,-0.36312 z m 57.448336,0.36312 c 0,-0.0549 0.20836,-0.2633 0.46302,-0.46302 0.41965,-0.3291 0.429,-0.31975 0.0999,0.0999 -0.34565,0.44073 -0.56292,0.58089 -0.56292,0.36312 z"
         id="path10568" />
      <path
         style="fill:#8c8c8c;fill-opacity:1;stroke-width:0.264583"
         d="m 52.539708,122.02784 -0.504029,-0.59531 0.595313,0.50403 c 0.559446,0.47366 0.715761,0.68659 0.504029,0.68659 -0.05021,0 -0.318098,-0.26789 -0.595313,-0.59531 z m 47.272814,-1.63009 c -0.238709,-0.28763 -0.23096,-0.41883 0.03375,-0.57159 0.188968,-0.10904 0.255308,-0.10083 0.147436,0.0183 -0.107878,0.11908 -0.06353,0.3763 0.09854,0.57158 0.16207,0.1953 0.23515,0.35508 0.16239,0.35508 -0.0728,0 -0.271725,-0.168 -0.44213,-0.37332 z"
         id="path10566" />
      <path
         style="fill:#8c8c8c;fill-opacity:1;stroke-width:0.264583"
         d="m 48.959221,119.24972 c -0.329107,-0.41965 -0.319749,-0.42901 0.0999,-0.0999 0.254661,0.19972 0.463021,0.40808 0.463021,0.46302 0,0.21776 -0.217273,0.0776 -0.562917,-0.36312 z"
         id="path10564" />
      <path
         style="fill:#8c8c8c;fill-opacity:1;stroke-width:0.264583"
         d="m 69.038244,135.66519 c 0.329118,-0.0633 0.805368,-0.0609 1.058333,0.005 0.252966,0.0662 -0.01632,0.118 -0.598397,0.11506 -0.582083,-0.003 -0.789054,-0.0571 -0.459936,-0.1204 z M 58.32545,71.558568 c 0,-0.654843 0.0516,-0.922734 0.114662,-0.595312 0.06307,0.327422 0.06307,0.863203 0,1.190625 -0.06306,0.327422 -0.114662,0.05953 -0.114662,-0.595313 z m 61.9125,0 c 0,-0.654843 0.0516,-0.922734 0.11466,-0.595312 0.0631,0.327422 0.0631,0.863203 0,1.190625 -0.0631,0.327422 -0.11466,0.05953 -0.11466,-0.595313 z M 49.654429,56.741901 c 0.568389,-0.582083 1.092968,-1.058333 1.165728,-1.058333 0.07276,0 -0.332756,0.47625 -0.901144,1.058333 -0.568389,0.582084 -1.092968,1.058334 -1.165728,1.058334 -0.07276,0 0.332756,-0.47625 0.901144,-1.058334 z m 78.963881,-0.198437 -0.9118,-0.992188 0.99219,0.9118 c 0.54571,0.501488 0.99219,0.947973 0.99219,0.992187 0,0.202041 -0.2239,0.01172 -1.07258,-0.911799 z"
         id="path10562" />
      <path
         style="fill:#8c8c8c;fill-opacity:1;stroke-width:0.264583"
         d="m 51.075888,135.65388 c -0.329108,-0.41964 -0.319749,-0.429 0.0999,-0.0999 0.440729,0.34564 0.580887,0.56291 0.363124,0.56291 -0.05494,0 -0.2633,-0.20836 -0.46302,-0.46302 z m 75.969172,0.36313 c 0,-0.0549 0.20836,-0.2633 0.46302,-0.46302 0.41964,-0.32911 0.429,-0.31975 0.0999,0.0999 -0.34564,0.44073 -0.56291,0.58089 -0.56291,0.36313 z m -78.615006,-3.00896 c -0.329107,-0.41965 -0.319749,-0.429 0.0999,-0.0999 0.254662,0.19972 0.463021,0.40808 0.463021,0.46302 0,0.21777 -0.217273,0.0776 -0.562917,-0.36312 z m 81.260836,0.36312 c 0,-0.0549 0.20836,-0.2633 0.46302,-0.46302 0.41965,-0.3291 0.429,-0.31975 0.0999,0.0999 -0.34565,0.44073 -0.56292,0.58089 -0.56292,0.36312 z M 33.668025,93.100063 c 0.0127,-0.308226 0.07539,-0.370919 0.159853,-0.159853 0.07643,0.190994 0.06703,0.4192 -0.02089,0.507119 -0.08792,0.08792 -0.150453,-0.06835 -0.138964,-0.347266 z m 111.125005,0 c 0.0127,-0.308226 0.0754,-0.370919 0.15985,-0.159853 0.0764,0.190994 0.067,0.4192 -0.0209,0.507119 -0.0879,0.08792 -0.15045,-0.06835 -0.13896,-0.347266 z"
         id="path10560" />
      <path
         style="fill:#8c8c8c;fill-opacity:1;stroke-width:0.264583"
         d="M 69.762763,147.12914 C 53.167228,141.0827 39.933664,126.48645 35.525063,109.36592 33.277002,100.63571 33.222798,90.837828 35.375452,82.322337 40.359938,62.604658 55.619268,47.291588 75.319013,42.238102 c 5.096471,-1.307375 8.382778,-1.707541 14.022917,-1.707541 5.640139,0 8.926447,0.400166 14.02292,1.707541 17.94191,4.602555 32.61275,18.071007 38.58204,35.419938 1.98744,5.776217 2.87701,11.210298 2.89966,17.713029 0.0523,15.016231 -5.58452,28.570971 -16.31344,39.228611 -5.48955,5.45308 -13.01024,10.21679 -19.95617,12.64051 -2.22531,0.7765 -2.56068,0.82876 -3.50419,0.54608 -1.8251,-0.54681 -1.84019,-0.63688 -1.84019,-10.98175 0,-5.78349 -0.10958,-9.64198 -0.29905,-10.53032 -0.39401,-1.84728 -1.38879,-4.07663 -2.36149,-5.29224 l -0.783972,-0.97974 0.862352,-0.13905 c 7.3806,-1.19014 11.267,-2.55391 15.17481,-5.32497 4.64833,-3.29617 7.6524,-8.74602 8.68805,-15.761504 1.21671,-8.241946 -0.18197,-14.714763 -4.26719,-19.747731 l -0.91605,-1.128561 0.45949,-1.781855 c 0.87131,-3.378817 0.47778,-8.967555 -0.85628,-12.160399 l -0.39246,-0.939284 -2.03171,0.150069 c -3.08365,0.227767 -7.60692,2.018578 -11.689,4.627798 l -1.45521,0.930151 -2.77813,-0.562205 c -4.154909,-0.840825 -6.835699,-1.104027 -11.24479,-1.104027 -4.409091,0 -7.089881,0.263202 -11.244792,1.104027 l -2.778125,0.562205 -1.455208,-0.930151 C 69.781721,65.187513 65.258446,63.396702 62.174801,63.168935 L 60.14309,63.018866 59.770422,63.91528 c -1.376003,3.309829 -1.768989,8.768596 -0.878536,12.203269 l 0.461954,1.781855 -0.919342,1.128561 c -4.060248,4.984258 -5.475634,11.539451 -4.263898,19.747731 1.833396,12.419394 9.266671,19.088754 23.472289,21.060054 l 1.265544,0.17562 -0.684887,0.81394 c -0.998654,1.18684 -1.945135,3.18009 -2.332276,4.91169 l -0.338794,1.51536 -1.704231,0.58025 c -2.407179,0.81959 -4.303149,1.00929 -6.442623,0.64463 -3.270972,-0.55752 -5.621335,-2.27502 -7.949555,-5.80903 -2.27407,-3.45182 -5.166201,-5.37767 -8.345678,-5.55733 -1.421024,-0.0803 -1.843818,-0.005 -2.372952,0.42366 -0.622795,0.50431 -0.629166,0.54377 -0.194808,1.20669 0.246975,0.37693 1.150528,1.16169 2.007894,1.74392 2.320824,1.57604 3.855035,3.48087 5.47325,6.79544 0.789078,1.61625 1.909347,3.47788 2.489489,4.13696 2.914983,3.3116 7.857834,4.83779 13.531742,4.17816 1.464788,-0.17029 2.830441,-0.37378 3.034778,-0.45219 0.31155,-0.11955 0.371523,0.73554 0.371523,5.29725 0,3.50436 -0.10718,5.67506 -0.301244,6.10098 -0.315809,0.69312 -1.682329,1.48973 -2.516868,1.46719 -0.269049,-0.007 -1.560742,-0.40362 -2.87043,-0.8808 z m -1.05628,-16.30058 c -0.292148,-0.4727 0.426789,-1.09481 1.165924,-1.00889 1.062889,0.12356 0.940353,1.11298 -0.150958,1.21892 -0.459285,0.0446 -0.91602,-0.0499 -1.014966,-0.21003 z m 4.465423,-0.38974 c -0.405844,-0.29676 -0.424973,-0.41487 -0.125613,-0.77558 0.431789,-0.52027 1.438968,-0.55503 1.846712,-0.0637 0.554755,0.66844 -0.950743,1.40261 -1.721099,0.83931 z m -8.634664,-0.15854 c -0.616627,-0.36635 -0.58783,-0.96727 0.05615,-1.17166 0.695301,-0.22068 1.650256,0.32002 1.544606,0.87457 -0.100455,0.52729 -0.948413,0.68467 -1.600759,0.29709 z m -3.761393,-2.3556 c -0.514475,-0.56849 -0.383461,-1.33278 0.228462,-1.33278 0.547156,0 1.217827,0.73896 1.217827,1.34182 0,0.67319 -0.833591,0.66798 -1.446289,-0.009 z m -2.635854,-3.07147 c -0.815265,-0.81526 -0.337465,-1.69622 0.637091,-1.17465 0.314465,0.1683 0.534635,0.55469 0.534635,0.93828 0,0.75018 -0.547473,0.86062 -1.171726,0.23637 z m -2.21494,-3.07672 c -0.483974,-0.48398 -0.379024,-1.00542 0.202358,-1.00542 0.531527,0 1.183429,0.85435 0.881944,1.15584 -0.262353,0.26235 -0.737436,0.19644 -1.084302,-0.15042 z m -2.414617,-2.43707 c -0.189365,-0.22817 -0.211246,-0.43425 -0.05627,-0.53003 0.379976,-0.23484 1.095057,0.11438 1.095057,0.53478 0,0.47778 -0.640752,0.47485 -1.038783,-0.005 z"
         id="path10558" />
    </g>
  </g>
</svg>
