<?xml version="1.0" encoding="UTF-8" standalone="no"?>
<!-- Created with Inkscape (http://www.inkscape.org/) -->

<svg
   width="128.09544mm"
   height="128mm"
   viewBox="0 0 128.09544 128"
   version="1.1"
   id="svg1110"
   inkscape:version="1.1 (c68e22c387, 2021-05-23)"
   xmlns:inkscape="http://www.inkscape.org/namespaces/inkscape"
   xmlns:sodipodi="http://sodipodi.sourceforge.net/DTD/sodipodi-0.dtd"
   xmlns="http://www.w3.org/2000/svg"
   xmlns:svg="http://www.w3.org/2000/svg">
  <sodipodi:namedview
     id="namedview1112"
     pagecolor="#ffffff"
     bordercolor="#666666"
     borderopacity="1.0"
     inkscape:pageshadow="2"
     inkscape:pageopacity="0.0"
     inkscape:pagecheckerboard="0"
     inkscape:document-units="mm"
     showgrid="false"
     fit-margin-top="0"
     fit-margin-left="0"
     fit-margin-right="0"
     fit-margin-bottom="0"
     inkscape:zoom="0.77771465"
     inkscape:cx="261.02119"
     inkscape:cy="418.53397"
     inkscape:window-width="1811"
     inkscape:window-height="1131"
     inkscape:window-x="1147"
     inkscape:window-y="145"
     inkscape:window-maximized="0"
     inkscape:current-layer="layer1" />
  <defs
     id="defs1107" />
  <g
     inkscape:label="Layer 1"
     inkscape:groupmode="layer"
     id="layer1"
     transform="translate(-35.897843,-37.711624)">
    <g
       id="g1183"
       transform="matrix(0.95339873,0,0,0.95339873,1.0241809,-26.461231)"
       style="fill:#8c8c8c;fill-opacity:1">
      <path
         style="fill:#8c8c8c;fill-opacity:1;stroke-width:0.264583"
         d="m 112.36185,98.398108 c 0.26339,-0.291042 0.53842,-0.529167 0.61118,-0.529167 0.0728,0 -0.0832,0.238125 -0.3466,0.529167 -0.26339,0.291042 -0.53842,0.529167 -0.61118,0.529167 -0.0728,0 0.0832,-0.238125 0.3466,-0.529167 z"
         id="path1199" />
      <path
         style="fill:#8c8c8c;fill-opacity:1;stroke-width:0.264583"
         d="m 133.06549,91.056346 c 2.51024,-0.04349 6.61789,-0.04349 9.12813,0 2.51023,0.04349 0.4564,0.07907 -4.56406,0.07907 -5.02047,0 -7.0743,-0.03558 -4.56407,-0.07907 z"
         id="path1197" />
      <path
         style="fill:#8c8c8c;fill-opacity:1;stroke-width:0.264583"
         d="m 91.674713,128.36259 c 2.301034,-0.0441 5.991971,-0.044 8.202083,2e-4 2.210114,0.0442 0.327444,0.0803 -4.1837,0.0802 -4.511146,-1.1e-4 -6.319419,-0.0363 -4.018383,-0.0804 z m 38.480367,-1.3e-4 c 3.09231,-0.0423 8.15247,-0.0423 11.24479,0 3.09232,0.0423 0.56224,0.077 -5.6224,0.077 -6.18463,0 -8.71471,-0.0346 -5.62239,-0.077 z m -2.10013,-37.288842 c 0.19099,-0.07643 0.4192,-0.06703 0.50711,0.02088 0.0879,0.08792 -0.0684,0.150453 -0.34726,0.138964 -0.30823,-0.0127 -0.37092,-0.07539 -0.15985,-0.15985 z"
         id="path1195" />
      <path
         style="fill:#8c8c8c;fill-opacity:1;stroke-width:0.264583"
         d="m 147.01116,139.67311 c 0,-6.18464 0.0346,-8.71471 0.077,-5.6224 0.0423,3.09232 0.0423,8.15248 0,11.24479 -0.0423,3.09232 -0.077,0.56224 -0.077,-5.62239 z m 0,-37.30625 c 0,-6.184637 0.0346,-8.714716 0.077,-5.622398 0.0423,3.092318 0.0423,8.152478 0,11.244788 -0.0423,3.09232 -0.077,0.56224 -0.077,-5.62239 z"
         id="path1193" />
      <path
         style="fill:#8c8c8c;fill-opacity:1;stroke-width:0.264583"
         d="m 36.579609,180.00002 c 0.0127,-0.30823 0.07539,-0.37092 0.159851,-0.15985 0.07643,0.19099 0.06703,0.4192 -0.02088,0.50712 -0.08792,0.0879 -0.150452,-0.0684 -0.138964,-0.34727 z m 134.143751,0 c 0.0127,-0.30823 0.0754,-0.37092 0.15985,-0.15985 0.0764,0.19099 0.067,0.4192 -0.0209,0.50712 -0.0879,0.0879 -0.15046,-0.0684 -0.13897,-0.34727 z M 36.579609,88.983352 c 0.0127,-0.308227 0.07539,-0.37092 0.159851,-0.159854 0.07643,0.190995 0.06703,0.419198 -0.02088,0.507119 -0.08792,0.08792 -0.150452,-0.06835 -0.138964,-0.347265 z m 134.143751,0 c 0.0127,-0.308227 0.0754,-0.37092 0.15985,-0.159854 0.0764,0.190995 0.067,0.419198 -0.0209,0.507119 -0.0879,0.08792 -0.15046,-0.06835 -0.13897,-0.347265 z"
         id="path1191" />
      <path
         style="fill:#8c8c8c;fill-opacity:1;stroke-width:0.264583"
         d="m 43.417861,194.77259 -0.641432,-0.72761 0.727604,0.64144 c 0.680056,0.59951 0.848939,0.81377 0.641432,0.81377 -0.04739,0 -0.374814,-0.32742 -0.727604,-0.7276 z m 120.670029,-0.19844 c 0.34177,-0.3638 0.68094,-0.66146 0.7537,-0.66146 0.0728,0 -0.14734,0.29766 -0.48912,0.66146 -0.34177,0.3638 -0.68094,0.66146 -0.7537,0.66146 -0.0728,0 0.14734,-0.29766 0.48912,-0.66146 z M 36.688009,134.51373 c 5e-6,-24.88406 0.03111,-35.024724 0.06913,-22.53481 0.03802,12.48992 0.03802,32.84961 -8e-6,45.24376 -0.03802,12.39414 -0.06913,2.17512 -0.06912,-22.70895 z m 134.143751,0 c 1e-5,-24.88406 0.0311,-35.024724 0.0691,-22.53481 0.038,12.48992 0.038,32.84961 0,45.24376 -0.038,12.39414 -0.0691,2.17512 -0.0691,-22.70895 z M 43.437887,73.924149 c 0.341776,-0.363802 0.68094,-0.661458 0.7537,-0.661458 0.07276,0 -0.147341,0.297656 -0.489117,0.661458 -0.341775,0.363802 -0.680939,0.661459 -0.7537,0.661459 -0.07276,0 0.147342,-0.297657 0.489117,-0.661459 z m 120.492573,0.06615 -0.50403,-0.595313 0.59531,0.504029 c 0.32742,0.277215 0.59532,0.545106 0.59532,0.595312 0,0.211734 -0.21294,0.05542 -0.6866,-0.504028 z"
         id="path1189" />
      <path
         style="fill:#8c8c8c;fill-opacity:1;stroke-width:0.264583"
         d="m 148.95703,201.40487 c 0.19099,-0.0764 0.4192,-0.067 0.50712,0.0209 0.0879,0.0879 -0.0683,0.15045 -0.34727,0.13896 -0.30822,-0.0127 -0.37092,-0.0754 -0.15985,-0.15985 z M 87.266945,150.85175 c -0.06765,-0.10914 2.336334,-0.16805 5.342197,-0.1309 10.291668,0.12716 11.282398,0.21625 3.033424,0.27278 -4.538938,0.0311 -8.307967,-0.0327 -8.375621,-0.14188 z m 42.888135,2.7e-4 c 3.09231,-0.0423 8.15247,-0.0423 11.24479,0 3.09232,0.0423 0.56224,0.077 -5.6224,0.077 -6.18463,0 -8.71471,-0.0346 -5.62239,-0.077 z M 87.1662,132.00019 c 0,-0.65484 0.0516,-0.92273 0.114662,-0.59531 0.06307,0.32742 0.06307,0.8632 0,1.19062 -0.06306,0.32743 -0.114662,0.0595 -0.114662,-0.59531 z m 39.08627,-17.03323 c 0,-0.0549 0.20836,-0.2633 0.46302,-0.46302 0.41965,-0.32911 0.42901,-0.31975 0.0999,0.0999 -0.34565,0.44073 -0.56292,0.58088 -0.56292,0.36312 z M 112.49414,98.001233 c 0.34177,-0.363802 0.68094,-0.661458 0.7537,-0.661458 0.0728,0 -0.14734,0.297656 -0.48912,0.661458 -0.34177,0.363802 -0.68094,0.661458 -0.7537,0.661458 -0.0728,0 0.14734,-0.297656 0.48912,-0.661458 z"
         id="path1187" />
      <path
         style="fill:#8c8c8c;fill-opacity:1;stroke-width:0.264583"
         d="m 56.846608,201.30703 c -9.182478,-1.07105 -17.330896,-8.40973 -19.505859,-17.56748 -0.516064,-2.17291 -0.524533,-3.10639 -0.455498,-50.19391 l 0.07034,-47.979824 0.729748,-2.065263 c 1.407271,-3.982726 3.308294,-6.975513 6.138619,-9.664042 3.269684,-3.105881 6.293593,-4.81948 10.461842,-5.928551 l 2.248958,-0.598394 h 47.228132 47.22812 l 2.24896,0.596873 c 7.69235,2.041548 13.69992,7.622345 16.4803,15.309552 l 0.84991,2.349825 0.0704,47.979824 c 0.069,47.08752 0.0606,48.021 -0.4555,50.19391 -1.93695,8.1556 -8.48489,14.81328 -16.81277,17.09455 -2.04186,0.55934 -2.58421,0.58052 -15.34583,0.59952 l -13.22917,0.0197 -0.0675,-25.19869 -0.0675,-25.19869 11.17998,-0.069 11.17998,-0.069 0.069,-11.31094 0.069,-11.31093 H 135.91264 124.665 v -4.71448 c 0,-3.49627 0.10641,-5.0728 0.41181,-6.10119 0.52317,-1.76172 1.94965,-3.37486 3.30769,-3.74055 0.61251,-0.16493 4.51911,-0.26558 9.82722,-0.25319 l 8.81057,0.0206 0.069,-11.27684 0.069,-11.276846 -11.04921,0.105918 c -12.52082,0.120026 -12.32531,0.09327 -16.87005,2.308596 -7.06518,3.443912 -12.12736,9.887702 -14.59067,18.572872 -0.65532,2.31055 -0.70648,2.89823 -0.81889,9.40611 l -0.1199,6.94158 -8.218829,0.0699 -8.218829,0.0699 0.04758,11.2448 0.04758,11.24479 8.198252,0.0699 8.198256,0.0699 -0.0675,25.19779 -0.0675,25.1978 -22.489588,0.0321 c -12.369271,0.0177 -23.301754,-0.0626 -24.294405,-0.1784 z"
         id="path1185" />
    </g>
  </g>
</svg>
