<?xml version="1.0" encoding="UTF-8" standalone="no"?>
<!-- Created with Inkscape (http://www.inkscape.org/) -->

<svg
   width="119.11084mm"
   height="128mm"
   viewBox="0 0 119.11084 128"
   version="1.1"
   id="svg917"
   inkscape:version="1.1 (c68e22c387, 2021-05-23)"
   xmlns:inkscape="http://www.inkscape.org/namespaces/inkscape"
   xmlns:sodipodi="http://sodipodi.sourceforge.net/DTD/sodipodi-0.dtd"
   xmlns="http://www.w3.org/2000/svg"
   xmlns:svg="http://www.w3.org/2000/svg">
  <sodipodi:namedview
     id="namedview919"
     pagecolor="#ffffff"
     bordercolor="#666666"
     borderopacity="1.0"
     inkscape:pageshadow="2"
     inkscape:pageopacity="0.0"
     inkscape:pagecheckerboard="0"
     inkscape:document-units="mm"
     showgrid="false"
     fit-margin-top="0"
     fit-margin-left="0"
     fit-margin-right="0"
     fit-margin-bottom="0"
     inkscape:zoom="0.77771465"
     inkscape:cx="335.59867"
     inkscape:cy="516.25619"
     inkscape:window-width="2051"
     inkscape:window-height="1185"
     inkscape:window-x="1259"
     inkscape:window-y="38"
     inkscape:window-maximized="0"
     inkscape:current-layer="layer1" />
  <defs
     id="defs914" />
  <g
     inkscape:label="Layer 1"
     inkscape:groupmode="layer"
     id="layer1"
     transform="translate(-16.484288,-12.035865)">
    <g
       id="g990"
       transform="matrix(2.4464793,0,0,2.4464793,-137.8703,-311.21416)">
      <path
         style="fill:#d0d0d0;fill-opacity:1;stroke-width:0.0511066"
         d="m 84.150362,184.42094 c 0.04973,-0.013 0.11872,-0.0121 0.15332,0.002 0.0346,0.014 -0.0061,0.0246 -0.09041,0.0236 -0.08433,-0.001 -0.112636,-0.0125 -0.06291,-0.0255 z m 2.784339,0.002 c 0.03514,-0.0142 0.09263,-0.0142 0.127767,0 0.03514,0.0142 0.0064,0.0258 -0.06388,0.0258 -0.07027,0 -0.09902,-0.0116 -0.06388,-0.0258 z m -3.72759,-0.0522 c 0.03689,-0.0148 0.08097,-0.0129 0.09795,0.004 0.01698,0.017 -0.0132,0.0291 -0.06708,0.0268 -0.05954,-0.002 -0.07165,-0.0146 -0.03088,-0.0309 z m 4.701811,0 c 0.03689,-0.0148 0.08097,-0.0129 0.09795,0.004 0.01698,0.017 -0.0132,0.0291 -0.06708,0.0268 -0.05954,-0.002 -0.07165,-0.0146 -0.03088,-0.0309 z m 8.807992,-2.46932 c 0,-0.0703 0.0116,-0.099 0.02578,-0.0639 0.01418,0.0351 0.01418,0.0926 0,0.12777 -0.01418,0.0351 -0.02578,0.006 -0.02578,-0.0639 z m -0.05111,-1.12435 c 0,-0.0703 0.0116,-0.099 0.02578,-0.0639 0.01418,0.0351 0.01418,0.0926 0,0.12776 -0.01418,0.0351 -0.02578,0.006 -0.02578,-0.0639 z m -0.05111,-1.12435 c 0,-0.0703 0.0116,-0.099 0.02578,-0.0639 0.01418,0.0351 0.01418,0.0926 0,0.12777 -0.01418,0.0351 -0.02578,0.006 -0.02578,-0.0639 z m -8.579341,-0.49778 c 0.162651,-0.0102 0.415629,-0.0101 0.562173,2.1e-4 0.146544,0.0103 0.01347,0.0186 -0.295729,0.0185 -0.309195,-1e-4 -0.429095,-0.009 -0.266444,-0.0187 z m -1.560618,-0.0471 c 0.03513,-0.0142 0.09263,-0.0142 0.127766,0 0.03514,0.0142 0.0064,0.0258 -0.06388,0.0258 -0.07027,0 -0.09902,-0.0116 -0.06388,-0.0258 z m 3.475251,0 c 0.03513,-0.0142 0.09263,-0.0142 0.127766,0 0.03514,0.0142 0.0064,0.0258 -0.06388,0.0258 -0.07027,0 -0.09902,-0.0116 -0.06388,-0.0258 z m 6.613601,-0.57943 c 0,-0.0703 0.0116,-0.099 0.02578,-0.0639 0.01418,0.0351 0.01418,0.0926 0,0.12777 -0.01418,0.0351 -0.02578,0.006 -0.02578,-0.0639 z m -7.226881,-5.86 c 0.03514,-0.0142 0.09263,-0.0142 0.127767,0 0.03514,0.0142 0.0064,0.0258 -0.06388,0.0258 -0.07027,0 -0.09902,-0.0116 -0.06388,-0.0258 z m -2.044265,-0.0511 c 0.03514,-0.0142 0.09263,-0.0142 0.127766,0 0.03514,0.0142 0.0064,0.0258 -0.06388,0.0258 -0.07027,0 -0.09902,-0.0116 -0.06388,-0.0258 z m 3.884104,0 c 0.03514,-0.0142 0.09263,-0.0142 0.127766,0 0.03514,0.0142 0.0064,0.0258 -0.06388,0.0258 -0.07027,0 -0.09902,-0.0116 -0.06388,-0.0258 z m -4.749723,-0.0522 c 0.03689,-0.0148 0.08097,-0.0129 0.09795,0.004 0.01698,0.017 -0.0132,0.0291 -0.06708,0.0268 -0.05954,-0.002 -0.07165,-0.0146 -0.03088,-0.0309 z m 5.723943,0 c 0.03689,-0.0148 0.08097,-0.0129 0.09795,0.004 0.01698,0.017 -0.0132,0.0291 -0.06708,0.0268 -0.05954,-0.002 -0.07165,-0.0146 -0.03088,-0.0309 z m -6.439436,-0.0511 c 0.03689,-0.0148 0.08097,-0.0129 0.09795,0.004 0.01698,0.017 -0.0132,0.0291 -0.06708,0.0268 -0.05954,-0.002 -0.07165,-0.0146 -0.03088,-0.0309 z m -8.721582,-0.62947 c 0,-0.0703 0.0116,-0.099 0.02578,-0.0639 0.01418,0.0351 0.01418,0.0926 0,0.12777 -0.01418,0.0351 -0.02578,0.006 -0.02578,-0.0639 z m -13.649505,-8.76905 c 0.0025,-0.0595 0.01456,-0.0717 0.03088,-0.0309 0.01476,0.0369 0.01295,0.081 -0.004,0.098 -0.01698,0.017 -0.02906,-0.0132 -0.02684,-0.0671 z m -0.102213,-1.48209 c 0.0025,-0.0595 0.01456,-0.0717 0.03088,-0.0309 0.01476,0.0369 0.01295,0.081 -0.004,0.098 -0.01698,0.017 -0.02906,-0.0132 -0.02684,-0.0671 z m -0.04707,-0.99232 c 0,-0.0703 0.0116,-0.099 0.02578,-0.0639 0.01418,0.0351 0.01418,0.0926 0,0.12776 -0.01418,0.0351 -0.02578,0.006 -0.02578,-0.0639 z m -0.04732,-1.27767 c 0,-0.0984 0.01052,-0.13862 0.02337,-0.0894 0.01285,0.0492 0.01285,0.12968 0,0.17887 -0.01286,0.0492 -0.02337,0.009 -0.02337,-0.0894 z m 21.630527,-4.47183 c -5e-6,-2.10815 0.0063,-2.97802 0.01403,-1.93305 0.0077,1.04497 0.0077,2.76982 8e-6,3.833 -0.0077,1.06318 -0.01403,0.2082 -0.01404,-1.89995 z m -21.678176,2.42757 c 0,-0.1546 0.0096,-0.21784 0.02129,-0.14055 0.01171,0.0773 0.01171,0.20379 0,0.28109 -0.01171,0.0773 -0.02129,0.0141 -0.02129,-0.14054 z m 48.48891,-0.0298 c 0.002,-0.0595 0.0146,-0.0717 0.0309,-0.0309 0.0148,0.0369 0.0129,0.081 -0.004,0.0979 -0.017,0.017 -0.0291,-0.0132 -0.0268,-0.0671 z m 0.10221,-1.58431 c 0.002,-0.0595 0.0146,-0.0717 0.0309,-0.0309 0.0148,0.0369 0.013,0.081 -0.004,0.098 -0.017,0.017 -0.0291,-0.0132 -0.0269,-0.0671 z m 0.0551,-0.99232 c 0,-0.0703 0.0116,-0.099 0.0258,-0.0639 0.0142,0.0351 0.0142,0.0926 0,0.12776 -0.0142,0.0351 -0.0258,0.006 -0.0258,-0.0639 z m -21.565097,-3.75634 c 10e-4,-0.0843 0.0125,-0.11263 0.02545,-0.0629 0.01296,0.0497 0.01211,0.11872 -0.0019,0.15332 -0.014,0.0346 -0.0246,-0.006 -0.02356,-0.0904 z m 7.463462,-0.68994 c 0,-0.0984 0.01052,-0.13862 0.02337,-0.0894 0.01286,0.0492 0.01286,0.12968 0,0.17887 -0.01285,0.0492 -0.02337,0.009 -0.02337,-0.0894 z M 77.292313,150.0322 c 0.0025,-0.0595 0.01456,-0.0716 0.03088,-0.0309 0.01476,0.0369 0.01295,0.081 -0.004,0.0979 -0.01698,0.017 -0.02906,-0.0132 -0.02684,-0.0671 z m 25.757737,-0.86881 c 0.002,-0.0595 0.0146,-0.0716 0.0309,-0.0309 0.0148,0.0369 0.013,0.081 -0.004,0.098 -0.017,0.017 -0.0291,-0.0132 -0.0268,-0.0671 z M 63.092538,148.5795 c 0,-0.0984 0.01052,-0.13862 0.02337,-0.0894 0.01286,0.0492 0.01286,0.12968 0,0.17887 -0.01286,0.0492 -0.02337,0.009 -0.02337,-0.0894 z m 17.453834,-2.23143 c 0.03514,-0.0142 0.09263,-0.0142 0.127767,0 0.03514,0.0142 0.0064,0.0258 -0.06388,0.0258 -0.07027,0 -0.09902,-0.0116 -0.06388,-0.0258 z m 0.486486,-0.002 c 0.04972,-0.0129 0.118719,-0.0121 0.15332,0.002 0.0346,0.014 -0.0061,0.0246 -0.09041,0.0236 -0.08433,-0.001 -0.112636,-0.0125 -0.06291,-0.0255 z m 12.776658,0 c 0.04972,-0.0129 0.118719,-0.0121 0.15332,0.002 0.0346,0.014 -0.0061,0.0246 -0.09041,0.0236 -0.08433,-0.001 -0.112636,-0.0125 -0.06291,-0.0255 z m 0.48454,0.002 c 0.03514,-0.0142 0.09263,-0.0142 0.127767,0 0.03514,0.0142 0.0064,0.0258 -0.06388,0.0258 -0.07027,0 -0.09902,-0.0116 -0.06388,-0.0258 z m -20.174343,-3.00074 c 0,-0.0106 0.04025,-0.0509 0.08944,-0.0894 0.08106,-0.0636 0.08287,-0.0618 0.0193,0.0193 -0.06676,0.0851 -0.108733,0.11221 -0.108733,0.0701 z m 0.281087,-0.28734 c 0.05088,-0.0562 0.104001,-0.10221 0.118055,-0.10221 0.01405,0 -0.01607,0.046 -0.06695,0.10221 -0.05088,0.0562 -0.104001,0.10221 -0.118056,0.10221 -0.01405,0 0.01607,-0.046 0.06695,-0.10221 z m 10.751427,-0.0383 c -0.06357,-0.0811 -0.06176,-0.0829 0.0193,-0.0193 0.04919,0.0386 0.08944,0.0788 0.08944,0.0894 0,0.0421 -0.04197,0.015 -0.108732,-0.0701 z m 4.606116,0.0223 c 0,-0.009 0.07474,-0.0835 0.166096,-0.1661 l 0.166097,-0.1501 -0.150105,0.16609 c -0.139919,0.15483 -0.182088,0.18959 -0.182088,0.15011 z m -9.00435,-2.01208 c 0.03689,-0.0148 0.08097,-0.013 0.09795,0.004 0.01698,0.017 -0.0132,0.0291 -0.06708,0.0268 -0.05954,-0.002 -0.07165,-0.0146 -0.03088,-0.0309 z m 2.449924,-8.78928 c 0.03514,-0.0142 0.09263,-0.0142 0.127767,0 0.03514,0.0142 0.0064,0.0258 -0.06388,0.0258 -0.07027,0 -0.09902,-0.0116 -0.06388,-0.0258 z m 8.483701,0 c 0.03514,-0.0142 0.09263,-0.0142 0.127767,0 0.03513,0.0142 0.0064,0.0258 -0.06388,0.0258 -0.07027,0 -0.09902,-0.0116 -0.06388,-0.0258 z m -7.383936,-0.0527 c 0.04973,-0.013 0.11872,-0.0121 0.15332,0.002 0.0346,0.014 -0.0061,0.0246 -0.09041,0.0236 -0.08433,-0.001 -0.112636,-0.0125 -0.06291,-0.0255 z m 6.337223,0 c 0.04972,-0.013 0.118719,-0.0121 0.15332,0.002 0.0346,0.014 -0.0061,0.0246 -0.09041,0.0236 -0.08433,-0.001 -0.112636,-0.0125 -0.06291,-0.0255 z m -4.88106,-0.0518 c 0.06357,-0.0122 0.155564,-0.0118 0.204426,0.001 0.04886,0.0128 -0.0032,0.0228 -0.115586,0.0222 -0.112434,-5.7e-4 -0.152412,-0.011 -0.08884,-0.0233 z m 3.270824,0 c 0.06357,-0.0122 0.155564,-0.0118 0.204427,0.001 0.04886,0.0128 -0.0032,0.0228 -0.115586,0.0222 -0.112435,-5.7e-4 -0.152413,-0.011 -0.08884,-0.0233 z"
         id="path998" />
      <path
         style="fill:#b9b9b9;fill-opacity:1;stroke-width:0.0511066"
         d="m 84.431072,184.42021 c 0.06357,-0.0122 0.155564,-0.0118 0.204427,0.001 0.04886,0.0128 -0.0032,0.0228 -0.115586,0.0222 -0.112435,-5.6e-4 -0.152413,-0.011 -0.08884,-0.0233 z m 2.197585,0 c 0.06357,-0.0122 0.155564,-0.0118 0.204427,0.001 0.04886,0.0128 -0.0032,0.0228 -0.115586,0.0222 -0.112434,-5.6e-4 -0.152413,-0.011 -0.08884,-0.0233 z m -3.268226,-0.0499 c 0.03689,-0.0148 0.08097,-0.0129 0.09795,0.004 0.01698,0.017 -0.0132,0.0291 -0.06708,0.0268 -0.05954,-0.002 -0.07165,-0.0146 -0.03088,-0.0309 z m 4.395171,0 c 0.03689,-0.0148 0.08097,-0.0129 0.09795,0.004 0.01698,0.017 -0.0132,0.0291 -0.06708,0.0268 -0.05954,-0.002 -0.07165,-0.0146 -0.03088,-0.0309 z m 8.961312,-2.26489 c 0,-0.0703 0.0116,-0.099 0.02578,-0.0639 0.01418,0.0351 0.01418,0.0926 0,0.12777 -0.01418,0.0351 -0.02578,0.006 -0.02578,-0.0639 z m -0.05111,-1.12434 c 0,-0.0703 0.0116,-0.099 0.02578,-0.0639 0.01418,0.0351 0.01418,0.0926 0,0.12777 -0.01418,0.0351 -0.02578,0.006 -0.02578,-0.0639 z m -0.05111,-1.12435 c 0,-0.0703 0.0116,-0.099 0.02578,-0.0639 0.01418,0.0351 0.01418,0.0926 0,0.12776 -0.01418,0.0351 -0.02578,0.006 -0.02578,-0.0639 z m -27.278313,-0.11499 -0.09736,-0.11499 0.11499,0.0974 c 0.108062,0.0915 0.138256,0.13262 0.09736,0.13262 -0.0097,0 -0.06144,-0.0517 -0.11499,-0.11499 z m -0.458319,-0.45996 -0.150105,-0.1661 0.166096,0.15011 c 0.09135,0.0826 0.166097,0.1573 0.166097,0.1661 0,0.0395 -0.04217,0.005 -0.182088,-0.15011 z m 18.644359,-0.12467 c 0.04919,-0.0128 0.129683,-0.0128 0.178873,0 0.04919,0.0129 0.0089,0.0234 -0.08944,0.0234 -0.09838,0 -0.138627,-0.0105 -0.08944,-0.0234 z m 1.431688,-10e-4 c 0.07769,-0.0117 0.192675,-0.0114 0.255533,7e-4 0.06286,0.0121 -7.05e-4,0.0217 -0.141246,0.0214 -0.140543,-4.1e-4 -0.191972,-0.0103 -0.114287,-0.0221 z m -2.6295,-0.0493 c 0.03689,-0.0148 0.08097,-0.0129 0.09795,0.004 0.01698,0.017 -0.0132,0.0291 -0.06708,0.0268 -0.05954,-0.002 -0.07165,-0.0146 -0.03088,-0.0309 z m -0.868813,-0.0511 c 0.03689,-0.0148 0.08097,-0.0129 0.09795,0.004 0.01698,0.017 -0.0132,0.0291 -0.06708,0.0268 -0.05954,-0.002 -0.07165,-0.0146 -0.03088,-0.0309 z m 5.31509,0 c 0.03689,-0.0148 0.08097,-0.0129 0.09795,0.004 0.01698,0.017 -0.0132,0.0291 -0.06708,0.0268 -0.05954,-0.002 -0.07165,-0.0146 -0.03088,-0.0309 z m 5.792701,-0.32284 c 0,-0.0703 0.0116,-0.099 0.02578,-0.0639 0.01418,0.0351 0.01418,0.0926 0,0.12777 -0.01418,0.0351 -0.02578,0.006 -0.02578,-0.0639 z m -9.040194,-6.1171 c 0.04973,-0.013 0.118719,-0.0121 0.15332,0.002 0.0346,0.014 -0.0061,0.0246 -0.09041,0.0236 -0.08433,-0.001 -0.112636,-0.0125 -0.06291,-0.0255 z m 3.424144,0 c 0.04973,-0.013 0.11872,-0.0121 0.15332,0.002 0.0346,0.014 -0.0061,0.0246 -0.09041,0.0236 -0.08433,-0.001 -0.112636,-0.0125 -0.06291,-0.0255 z m -4.367395,-0.0506 c 0.03689,-0.0148 0.08097,-0.0129 0.09795,0.004 0.01698,0.017 -0.0132,0.0291 -0.06708,0.0268 -0.05954,-0.002 -0.07165,-0.0146 -0.03088,-0.0309 z m 5.417303,0 c 0.03689,-0.0148 0.08097,-0.0129 0.09795,0.004 0.01698,0.017 -0.0132,0.0291 -0.06708,0.0268 -0.05954,-0.002 -0.07165,-0.0146 -0.03088,-0.0309 z m 0.7666,-0.0511 c 0.03689,-0.0148 0.08097,-0.0129 0.09795,0.004 0.01698,0.017 -0.0132,0.0291 -0.06708,0.0268 -0.05954,-0.002 -0.07165,-0.0146 -0.03088,-0.0309 z M 76.98572,172.05874 c 0.0025,-0.0595 0.01456,-0.0717 0.03088,-0.0309 0.01476,0.0369 0.01295,0.081 -0.004,0.098 -0.01698,0.017 -0.02906,-0.0132 -0.02684,-0.0671 z m -5.142216,-8.16002 c -0.01337,-0.0351 -0.01832,-3.22611 -0.01099,-7.09105 l 0.01332,-7.02716 0.01259,7.06504 0.01259,7.06505 2.721428,0.0137 2.721428,0.0137 -2.723032,0.0123 c -2.140525,0.01 -2.728232,-0.001 -2.747342,-0.0516 z m 25.808845,0 c -0.01337,-0.0351 -0.01832,-3.08812 -0.01098,-6.78441 l 0.01333,-6.72052 0.01259,6.7584 0.01259,6.75841 2.721431,0.0137 2.72143,0.0137 -2.72303,0.0123 c -2.140531,0.01 -2.72824,-0.001 -2.747353,-0.0516 z m -34.363207,-1.60134 c 0.0025,-0.0595 0.01456,-0.0717 0.03088,-0.0309 0.01476,0.0369 0.01295,0.081 -0.004,0.0979 -0.01698,0.017 -0.02906,-0.0132 -0.02684,-0.0671 z m -0.04707,-0.83901 c 0,-0.0703 0.0116,-0.099 0.02578,-0.0639 0.01418,0.0351 0.01418,0.0926 0,0.12777 -0.01418,0.0351 -0.02578,0.006 -0.02578,-0.0639 z m -0.05111,-1.02213 c 0,-0.0703 0.0116,-0.099 0.02578,-0.0639 0.01418,0.0351 0.01418,0.0926 0,0.12777 -0.01418,0.0351 -0.02578,0.006 -0.02578,-0.0639 z m -0.04732,-1.37988 c 0,-0.0984 0.01052,-0.13862 0.02337,-0.0894 0.01285,0.0492 0.01285,0.12968 0,0.17887 -0.01286,0.0492 -0.02337,0.009 -0.02337,-0.0894 z m 27.04783,-4.16519 c -5e-6,-2.10815 0.0063,-2.97802 0.01403,-1.93305 0.0077,1.04497 0.0077,2.76982 8e-6,3.833 -0.0077,1.06318 -0.01403,0.2082 -0.01404,-1.89995 z m 21.393438,2.24444 c 0.002,-0.0595 0.0146,-0.0717 0.0309,-0.0309 0.0148,0.0369 0.0129,0.081 -0.004,0.0979 -0.017,0.017 -0.0291,-0.0132 -0.0268,-0.0671 z M 63.098201,156.6799 c 1.86e-4,-0.22486 0.0092,-0.3105 0.01997,-0.19029 0.0108,0.1202 0.01064,0.30418 -3.38e-4,0.40885 -0.01098,0.10466 -0.01982,0.006 -0.01963,-0.21856 z m 48.537819,-0.25979 c 0.002,-0.0595 0.0146,-0.0716 0.0309,-0.0309 0.0148,0.0369 0.013,0.081 -0.004,0.0979 -0.017,0.017 -0.0291,-0.0132 -0.0268,-0.0671 z m 0.0511,-0.86881 c 0.002,-0.0595 0.0146,-0.0717 0.0309,-0.0309 0.0148,0.0369 0.013,0.081 -0.004,0.098 -0.017,0.017 -0.0291,-0.0132 -0.0269,-0.0671 z m 0.0551,-1.04343 c 0,-0.0703 0.0116,-0.099 0.0258,-0.0639 0.0142,0.0351 0.0142,0.0926 0,0.12777 -0.0142,0.0351 -0.0258,0.006 -0.0258,-0.0639 z m -34.441047,-4.21629 c 5.67e-4,-0.11244 0.01103,-0.15242 0.02326,-0.0888 0.01222,0.0636 0.01176,0.15556 -0.001,0.20442 -0.01279,0.0489 -0.02279,-0.003 -0.02223,-0.11558 z m -14.200368,-0.86882 c 8e-5,-0.39352 0.0081,-0.54775 0.01783,-0.34273 0.0097,0.20502 0.0097,0.52699 -1.45e-4,0.71549 -0.0098,0.18851 -0.01776,0.0208 -0.01768,-0.37276 z m 0.03498,-1.74188 c 0.0025,-0.0595 0.01456,-0.0717 0.03088,-0.0309 0.01476,0.0369 0.01295,0.081 -0.004,0.098 -0.01698,0.017 -0.02906,-0.0132 -0.02684,-0.0671 z m 17.641503,-1.33438 c 0.04972,-0.0129 0.118719,-0.0121 0.15332,0.002 0.0346,0.014 -0.0061,0.0246 -0.09041,0.0236 -0.08433,-10e-4 -0.112636,-0.0125 -0.06291,-0.0255 z m 13.287724,0 c 0.04972,-0.0129 0.118719,-0.0121 0.15332,0.002 0.0346,0.014 -0.0061,0.0246 -0.09041,0.0236 -0.08433,-10e-4 -0.112636,-0.0125 -0.06291,-0.0255 z m -20.098655,-2.84585 c 0,-0.0106 0.04025,-0.0509 0.08944,-0.0894 0.08106,-0.0636 0.08287,-0.0618 0.0193,0.0193 -0.06676,0.0851 -0.108732,0.11221 -0.108732,0.0701 z m 26.824463,-0.17235 c -0.0636,-0.0811 -0.0618,-0.0829 0.0193,-0.0193 0.0851,0.0668 0.11221,0.10873 0.0701,0.10873 -0.0106,0 -0.0509,-0.0402 -0.0894,-0.0894 z m -15.48531,-0.15332 c -0.06357,-0.0811 -0.06176,-0.0829 0.01929,-0.0193 0.08513,0.0668 0.112204,0.10873 0.07014,0.10873 -0.01061,0 -0.05086,-0.0402 -0.08944,-0.0894 z m 15.18132,-0.15332 -0.1239,-0.14054 0.14054,0.12389 c 0.0773,0.0682 0.14055,0.13139 0.14055,0.14055 0,0.0401 -0.0414,0.007 -0.15719,-0.1239 z m -15.51185,-0.17887 -0.09736,-0.11499 0.11499,0.0974 c 0.06324,0.0536 0.11499,0.10529 0.11499,0.11499 0,0.0409 -0.04113,0.0107 -0.132622,-0.0974 z m -5.372575,-1.8647 c 0.134364,-0.0106 0.341346,-0.0104 0.459959,3.1e-4 0.118614,0.0107 0.0087,0.0194 -0.244298,0.0192 -0.252978,-1.6e-4 -0.350025,-0.009 -0.215661,-0.0195 z m 15.331989,0 c 0.134365,-0.0106 0.341346,-0.0104 0.45996,3.1e-4 0.118614,0.0107 0.0087,0.0194 -0.244299,0.0192 -0.252977,-1.6e-4 -0.350025,-0.009 -0.215661,-0.0195 z m 12.653606,-3.8848 c -0.0636,-0.0811 -0.0618,-0.0829 0.0193,-0.0193 0.0492,0.0386 0.0894,0.0788 0.0894,0.0894 0,0.0421 -0.042,0.015 -0.10873,-0.0701 z m -40.265506,0.019 c 0,-0.0106 0.04025,-0.0509 0.08944,-0.0894 0.08106,-0.0636 0.08287,-0.0618 0.0193,0.0193 -0.06677,0.0851 -0.108733,0.11221 -0.108733,0.0701 z m 0.61328,-0.61328 c 0,-0.0106 0.04025,-0.0508 0.08944,-0.0894 0.08106,-0.0636 0.08286,-0.0618 0.01929,0.0193 -0.06676,0.0851 -0.108732,0.11221 -0.108732,0.0701 z m 38.912846,-0.1468 -0.0974,-0.11499 0.11499,0.0974 c 0.0632,0.0536 0.11499,0.10529 0.11499,0.11499 0,0.0409 -0.0411,0.0107 -0.13262,-0.0974 z m -24.408145,-4.05956 c 0.03689,-0.0148 0.08097,-0.0129 0.09795,0.004 0.01698,0.017 -0.0132,0.0291 -0.06708,0.0268 -0.05954,-0.002 -0.07165,-0.0146 -0.03088,-0.0309 z m 10.0169,0 c 0.03689,-0.0148 0.08097,-0.0129 0.09795,0.004 0.01698,0.017 -0.0132,0.0291 -0.06708,0.0268 -0.05954,-0.002 -0.07165,-0.0146 -0.03088,-0.0309 z m -7.921528,-0.10221 c 0.03689,-0.0148 0.08097,-0.013 0.09795,0.004 0.01698,0.017 -0.0132,0.0291 -0.06708,0.0268 -0.05954,-0.002 -0.07165,-0.0146 -0.03088,-0.0309 z m 5.874068,0.001 c 0.03514,-0.0142 0.09263,-0.0142 0.127767,0 0.03514,0.0142 0.0064,0.0258 -0.06388,0.0258 -0.07027,0 -0.09902,-0.0116 -0.06388,-0.0258 z m -4.240935,-0.0543 c 0.09186,-0.0114 0.229845,-0.0111 0.30664,5.2e-4 0.0768,0.0117 0.0016,0.021 -0.167012,0.0207 -0.168652,-2.9e-4 -0.231484,-0.01 -0.139628,-0.0212 z m 2.350905,0 c 0.09186,-0.0114 0.229845,-0.0111 0.30664,5.2e-4 0.0768,0.0117 0.0016,0.021 -0.167012,0.0207 -0.168652,-2.9e-4 -0.231484,-0.01 -0.139628,-0.0212 z"
         id="path996" />
      <path
         style="fill:#a3a3a3;fill-opacity:1;stroke-width:0.0511066"
         d="m 84.813776,184.41975 c 0.0773,-0.0117 0.203788,-0.0117 0.281087,0 0.0773,0.0117 0.01405,0.0213 -0.140544,0.0213 -0.154597,0 -0.217842,-0.01 -0.140543,-0.0213 z m 1.328773,0 c 0.0773,-0.0117 0.203787,-0.0117 0.281086,0 0.0773,0.0117 0.01405,0.0213 -0.140543,0.0213 -0.154598,0 -0.217842,-0.01 -0.140543,-0.0213 z m -2.628798,-0.0494 c 0.03689,-0.0148 0.08097,-0.0129 0.09795,0.004 0.01698,0.017 -0.0132,0.0291 -0.06708,0.0268 -0.05954,-0.002 -0.07165,-0.0146 -0.03088,-0.0309 z m 4.088531,0 c 0.03689,-0.0148 0.08097,-0.0129 0.09795,0.004 0.01698,0.017 -0.0132,0.0291 -0.06708,0.0268 -0.05954,-0.002 -0.07165,-0.0146 -0.03088,-0.0309 z m -4.85513,-0.0511 c 0.03689,-0.0148 0.08097,-0.013 0.09795,0.004 0.01698,0.017 -0.0132,0.0291 -0.06708,0.0268 -0.05954,-0.002 -0.07165,-0.0146 -0.03088,-0.0309 z m 5.570623,0 c 0.03689,-0.0148 0.08097,-0.013 0.09795,0.004 0.01698,0.017 -0.0132,0.0291 -0.06708,0.0268 -0.05954,-0.002 -0.07165,-0.0146 -0.03088,-0.0309 z m 8.348032,-3.1337 c 0,-0.0703 0.0116,-0.099 0.02578,-0.0639 0.01418,0.0351 0.01418,0.0926 0,0.12777 -0.01418,0.0351 -0.02578,0.006 -0.02578,-0.0639 z m -26.896676,-1.06046 c -0.06357,-0.0811 -0.06176,-0.0829 0.01929,-0.0193 0.04919,0.0386 0.08944,0.0788 0.08944,0.0894 0,0.0421 -0.04197,0.015 -0.108732,-0.0701 z m 26.84557,-0.0639 c 0,-0.0703 0.0116,-0.099 0.02578,-0.0639 0.01418,0.0351 0.01418,0.0926 0,0.12777 -0.01418,0.0351 -0.02578,0.006 -0.02578,-0.0639 z m -27.48274,-0.52385 -0.09736,-0.11499 0.11499,0.0974 c 0.108061,0.0915 0.138255,0.13262 0.09736,0.13262 -0.0097,0 -0.06144,-0.0517 -0.11499,-0.11499 z m 18.135906,-0.38038 c 0.04973,-0.013 0.118719,-0.0121 0.15332,0.002 0.0346,0.014 -0.0061,0.0246 -0.09041,0.0236 -0.08433,-0.001 -0.112636,-0.0125 -0.06291,-0.0255 z m 2.068846,0.002 c 0.03514,-0.0142 0.09263,-0.0142 0.127767,0 0.03514,0.0142 0.0064,0.0258 -0.06388,0.0258 -0.07027,0 -0.09902,-0.0116 -0.06388,-0.0258 z m -3.219718,-0.0511 c 0.03514,-0.0142 0.09263,-0.0142 0.127767,0 0.03514,0.0142 0.0064,0.0258 -0.06388,0.0258 -0.07027,0 -0.09902,-0.0116 -0.06388,-0.0258 z m 4.142832,-10e-4 c 0.03689,-0.0148 0.08097,-0.0129 0.09795,0.004 0.01698,0.017 -0.0132,0.0291 -0.06708,0.0268 -0.05954,-0.002 -0.07165,-0.0146 -0.03088,-0.0309 z m 6.303767,-0.16952 c 0,-0.0703 0.0116,-0.099 0.02578,-0.0639 0.01418,0.0351 0.01418,0.0926 0,0.12776 -0.01418,0.0351 -0.02578,0.006 -0.02578,-0.0639 z m -17.721373,-2.10815 -0.09736,-0.11499 0.11499,0.0974 c 0.108061,0.0915 0.138255,0.13262 0.09736,0.13262 -0.0097,0 -0.06144,-0.0517 -0.11499,-0.11499 z m 8.936712,-4.21338 c 0.04973,-0.013 0.118719,-0.0121 0.15332,0.002 0.0346,0.014 -0.0061,0.0246 -0.09041,0.0236 -0.08433,-0.001 -0.112636,-0.0125 -0.06291,-0.0255 z m 2.860999,2e-4 c 0.04919,-0.0129 0.129683,-0.0129 0.178873,0 0.04919,0.0129 0.0089,0.0234 -0.08944,0.0234 -0.09838,0 -0.138627,-0.0105 -0.08944,-0.0234 z m -3.909657,-0.0497 c 0.03514,-0.0142 0.09263,-0.0142 0.127766,0 0.03514,0.0142 0.0064,0.0258 -0.06388,0.0258 -0.07027,0 -0.09902,-0.0116 -0.06388,-0.0258 z m 5.059556,0 c 0.03514,-0.0142 0.09263,-0.0142 0.127767,0 0.03514,0.0142 0.0064,0.0258 -0.06388,0.0258 -0.07027,0 -0.09902,-0.0116 -0.06388,-0.0258 z m -5.822961,-0.0522 c 0.03689,-0.0148 0.08097,-0.0129 0.09795,0.004 0.01698,0.017 -0.0132,0.0291 -0.06708,0.0268 -0.05954,-0.002 -0.07165,-0.0146 -0.03088,-0.0309 z m 7.308248,-0.0511 c 0.03689,-0.0148 0.08097,-0.013 0.09795,0.004 0.01698,0.017 -0.0132,0.0291 -0.06708,0.0268 -0.05954,-0.002 -0.07165,-0.0146 -0.03088,-0.0309 z m 15.367122,-5.38241 c 0.22355,-0.22487 0.41796,-0.40885 0.43201,-0.40885 0.0141,0 -0.15735,0.18398 -0.3809,0.40885 -0.22355,0.22487 -0.41795,0.40886 -0.43201,0.40886 -0.014,0 0.15735,-0.18399 0.3809,-0.40886 z m -31.329104,-9.86358 c 0,-3.72439 0.0061,-5.24801 0.01351,-3.38581 0.0074,1.8622 0.0074,4.90943 0,6.77163 -0.0074,1.8622 -0.01351,0.33858 -0.01351,-3.38582 z m 25.808884,-0.33219 c 0,-3.9071 0.006,-5.49791 0.0135,-3.53514 0.007,1.96277 0.007,5.15949 0,7.10382 -0.007,1.94433 -0.0135,0.33842 -0.0135,-3.56868 z m -39.781771,5.97522 c 0.0025,-0.0595 0.01456,-0.0717 0.03088,-0.0309 0.01476,0.0369 0.01295,0.081 -0.004,0.098 -0.01698,0.017 -0.02906,-0.0132 -0.02684,-0.0671 z m -0.05111,-0.71549 c 0.0025,-0.0595 0.01456,-0.0717 0.03088,-0.0309 0.01476,0.0369 0.01295,0.081 -0.004,0.0979 -0.01698,0.017 -0.02906,-0.0132 -0.02684,-0.0671 z m -0.05111,-0.86882 c 0.0025,-0.0595 0.01456,-0.0716 0.03088,-0.0309 0.01476,0.0369 0.01295,0.081 -0.004,0.0979 -0.01698,0.017 -0.02906,-0.0132 -0.02684,-0.0671 z m -0.04518,-1.06898 c 10e-4,-0.0843 0.0125,-0.11263 0.02545,-0.0629 0.01296,0.0497 0.0121,0.11872 -0.0019,0.15332 -0.014,0.0346 -0.0246,-0.006 -0.02356,-0.0904 z m -0.04818,-1.48209 c 5.67e-4,-0.11243 0.01103,-0.15241 0.02326,-0.0888 0.01223,0.0636 0.01176,0.15556 -10e-4,0.20443 -0.01279,0.0489 -0.02279,-0.003 -0.02223,-0.11559 z m 48.338021,-0.41311 c 0.002,-0.0595 0.0146,-0.0717 0.0309,-0.0309 0.0148,0.0369 0.013,0.081 -0.004,0.098 -0.017,0.017 -0.0291,-0.0132 -0.0268,-0.0671 z m 0.15332,-2.04427 c 0.002,-0.0595 0.0146,-0.0716 0.0309,-0.0309 0.0148,0.0369 0.013,0.081 -0.004,0.0979 -0.017,0.017 -0.0291,-0.0132 -0.0268,-0.0671 z m -48.53422,-0.86455 c 5.4e-5,-0.50596 0.0077,-0.70603 0.017,-0.4446 0.0093,0.26143 0.0093,0.67539 -9.7e-5,0.91992 -0.0093,0.24453 -0.01695,0.0306 -0.0169,-0.47532 z m 48.58936,-0.0256 c 0,-0.0703 0.0116,-0.099 0.0258,-0.0639 0.0142,0.0351 0.0142,0.0926 0,0.12777 -0.0142,0.0351 -0.0258,0.006 -0.0258,-0.0639 z m 0.0511,-1.07324 c 0,-0.0703 0.0116,-0.099 0.0258,-0.0639 0.0142,0.0351 0.0142,0.0926 0,0.12777 -0.0142,0.0351 -0.0258,0.006 -0.0258,-0.0639 z m -48.639309,-2.88753 c 3e-5,-0.73082 0.0072,-1.02269 0.01595,-0.64859 0.0087,0.3741 0.0087,0.97205 -5.3e-5,1.32877 -0.0088,0.35673 -0.01593,0.0506 -0.0159,-0.68018 z m 21.599873,-0.87307 c 0.0025,-0.0595 0.01456,-0.0716 0.03088,-0.0309 0.01476,0.0369 0.01295,0.081 -0.004,0.098 -0.01698,0.017 -0.02906,-0.0132 -0.02684,-0.0671 z m -12.872936,-0.865 c 0.001,-0.0843 0.0125,-0.11264 0.02545,-0.0629 0.01296,0.0497 0.01211,0.11872 -0.0019,0.15332 -0.014,0.0346 -0.0246,-0.006 -0.02356,-0.0904 z m -8.694056,-1.8441 c 0.0025,-0.0595 0.01456,-0.0717 0.03088,-0.0309 0.01476,0.0369 0.01295,0.081 -0.004,0.098 -0.01698,0.017 -0.02906,-0.0132 -0.02684,-0.0671 z m 15.072422,-0.44614 c 0,-0.009 0.07474,-0.0835 0.166097,-0.1661 l 0.166096,-0.1501 -0.150105,0.1661 c -0.139918,0.15482 -0.182088,0.18958 -0.182088,0.1501 z m 18.340762,-0.17566 c -0.06357,-0.0811 -0.06176,-0.0829 0.01929,-0.0193 0.08513,0.0668 0.112204,0.10873 0.07014,0.10873 -0.01061,0 -0.05086,-0.0402 -0.08944,-0.0894 z m -13.236618,-0.0511 c -0.06357,-0.0811 -0.06176,-0.0829 0.0193,-0.0193 0.08513,0.0668 0.112203,0.10873 0.07014,0.10873 -0.01061,0 -0.05086,-0.0402 -0.08944,-0.0894 z m 17.631792,-3.67968 c -0.0636,-0.0811 -0.0618,-0.0829 0.0193,-0.0193 0.0851,0.0668 0.11221,0.10873 0.0701,0.10873 -0.0106,0 -0.0509,-0.0402 -0.0894,-0.0894 z m -11.59469,-0.0321 c 0,-0.0106 0.04025,-0.0509 0.08944,-0.0894 0.08106,-0.0636 0.08287,-0.0618 0.0193,0.0193 -0.06676,0.0851 -0.108732,0.11221 -0.108732,0.0701 z m -3.890623,-0.12125 c -0.06357,-0.0811 -0.06176,-0.0829 0.01929,-0.0193 0.08513,0.0668 0.112204,0.10873 0.07014,0.10873 -0.01061,0 -0.05086,-0.0402 -0.08944,-0.0894 z m 14.820923,-0.51107 c -0.0636,-0.0811 -0.0618,-0.0829 0.0193,-0.0193 0.0851,0.0668 0.1122,0.10873 0.0701,0.10873 -0.0106,0 -0.0509,-0.0402 -0.0894,-0.0894 z m -25.64901,0.019 c 0,-0.0106 0.04025,-0.0509 0.08944,-0.0894 0.08106,-0.0636 0.08287,-0.0618 0.0193,0.0193 -0.06676,0.0851 -0.108732,0.1122 -0.108732,0.0701 z m 10.1637,-0.17236 c -0.06357,-0.0811 -0.06176,-0.0829 0.0193,-0.0193 0.08513,0.0668 0.112204,0.10873 0.07014,0.10873 -0.01061,0 -0.05086,-0.0403 -0.08944,-0.0894 z m 5.321609,0.019 c 0,-0.0106 0.04025,-0.0509 0.08944,-0.0894 0.08106,-0.0636 0.08287,-0.0618 0.0193,0.0193 -0.06677,0.0851 -0.108733,0.1122 -0.108733,0.0701 z M 79.271901,140.9807 c 0.03689,-0.0148 0.08097,-0.0129 0.09795,0.004 0.01698,0.017 -0.0132,0.0291 -0.06708,0.0268 -0.05954,-0.002 -0.07165,-0.0146 -0.03088,-0.0309 z m 1.018938,10e-4 c 0.03514,-0.0142 0.09263,-0.0142 0.127767,0 0.03514,0.0142 0.0064,0.0258 -0.06388,0.0258 -0.07027,0 -0.09902,-0.0116 -0.06388,-0.0258 z m 14.25875,0 c 0.03514,-0.0142 0.09263,-0.0142 0.127767,0 0.03514,0.0142 0.0064,0.0258 -0.06388,0.0258 -0.07027,0 -0.09902,-0.0116 -0.06388,-0.0258 z m 12.685471,-4.24633 -0.27934,-0.29386 0.29387,0.27934 c 0.16162,0.15364 0.29386,0.28588 0.29386,0.29386 0,0.0379 -0.0489,-0.006 -0.30839,-0.27934 z m -39.556918,0.0256 c 0.211784,-0.22565 0.257669,-0.26622 0.257669,-0.22785 0,0.008 -0.10924,0.11744 -0.242756,0.24276 l -0.242757,0.22784 z m 38.836658,-0.68994 c -0.0636,-0.0811 -0.0618,-0.0829 0.0193,-0.0193 0.0492,0.0386 0.0894,0.0788 0.0894,0.0894 0,0.0421 -0.042,0.015 -0.10873,-0.0701 z m -24.636461,-3.72737 c 0.03689,-0.0148 0.08097,-0.013 0.09795,0.004 0.01698,0.017 -0.0132,0.0291 -0.06708,0.0268 -0.05954,-0.002 -0.07165,-0.0146 -0.03088,-0.0309 z m 11.192352,0 c 0.03689,-0.0148 0.08097,-0.013 0.09795,0.004 0.01698,0.017 -0.0132,0.0291 -0.06708,0.0268 -0.05954,-0.002 -0.07165,-0.0146 -0.03088,-0.0309 z m -10.480053,-0.05 c 0.03513,-0.0142 0.09263,-0.0142 0.127766,0 0.03514,0.0142 0.0064,0.0258 -0.06388,0.0258 -0.07027,0 -0.09902,-0.0116 -0.06388,-0.0258 z m 9.659153,0 c 0.03514,-0.0142 0.09263,-0.0142 0.127767,0 0.03514,0.0142 0.0064,0.0258 -0.06388,0.0258 -0.07027,0 -0.09902,-0.0116 -0.06388,-0.0258 z m -8.739234,-0.0511 c 0.03514,-0.0142 0.09263,-0.0142 0.127767,0 0.03513,0.0142 0.0064,0.0258 -0.06388,0.0258 -0.07027,0 -0.09902,-0.0116 -0.06388,-0.0258 z m 7.870421,0 c 0.03514,-0.0142 0.09263,-0.0142 0.127767,0 0.03514,0.0142 0.0064,0.0258 -0.06388,0.0258 -0.07027,0 -0.09902,-0.0116 -0.06388,-0.0258 z m -6.668443,-0.0527 c 0.04973,-0.013 0.11872,-0.0121 0.15332,0.002 0.0346,0.014 -0.0061,0.0246 -0.09041,0.0236 -0.08433,-0.001 -0.112636,-0.0125 -0.06291,-0.0255 z m 5.46841,0 c 0.04973,-0.013 0.118719,-0.0121 0.15332,0.002 0.0346,0.014 -0.0061,0.0246 -0.09041,0.0236 -0.08433,-0.001 -0.112636,-0.0125 -0.06291,-0.0255 z m -3.45181,-0.0526 c 0.09073,-0.0113 0.251712,-0.0115 0.357747,-4.1e-4 0.106034,0.0111 0.0318,0.0203 -0.164957,0.0205 -0.196761,2.2e-4 -0.283516,-0.009 -0.19279,-0.0201 z m 1.124346,0 c 0.09073,-0.0113 0.251712,-0.0115 0.357746,-4.1e-4 0.106034,0.0111 0.0318,0.0203 -0.164956,0.0205 -0.196761,2.2e-4 -0.283517,-0.009 -0.19279,-0.0201 z"
         id="path994" />
      <path
         style="fill:#8c8c8c;fill-opacity:1;stroke-width:0.0511066"
         d="m 84.673233,184.42292 c -3.691478,-0.0965 -8.464054,-0.94716 -11.026428,-1.96539 -3.599073,-1.43019 -6.286575,-4.23282 -7.958257,-8.29916 -1.394718,-3.39263 -2.153595,-7.55408 -2.455754,-13.46659 -0.162103,-3.17197 -0.147045,-12.60374 0.02236,-14.00322 0.489901,-4.04723 1.905809,-7.27165 4.271808,-9.72811 1.225554,-1.27241 2.349339,-2.05994 3.730784,-2.61449 3.421346,-1.37342 9.420308,-2.1768 16.251909,-2.17645 6.613261,3.4e-4 12.375977,0.74702 15.894155,2.05942 1.59087,0.59344 2.66649,1.3182 4.01445,2.70498 2.00615,2.0639 3.38523,4.80784 4.02928,8.01702 0.29753,1.48254 0.30407,1.5861 0.32608,5.16177 0.0205,3.33217 -0.0114,4.61831 -0.16974,6.84829 -0.19252,2.71057 -0.53215,5.43051 -0.83917,6.72052 -0.17844,0.74975 -0.56077,1.52122 -1.14261,2.30557 -0.3777,0.50915 -1.40572,1.54733 -2.02754,2.04756 -2.1657,1.74223 -5.13192,3.0855 -8.157916,3.69438 -1.63933,0.32985 -5.611872,0.74668 -8.349525,0.87608 -3.720987,0.17589 -8.872005,-0.29528 -13.22847,-1.21001 -0.459312,-0.0964 -0.844528,-0.17535 -0.856036,-0.17535 -0.04101,0 -0.02002,0.83002 0.03333,1.31801 0.426423,3.9004 2.557796,5.84086 7.025568,6.39628 2.422398,0.30114 5.207354,0.32969 7.408905,0.0759 1.460906,-0.16837 3.120888,-0.4747 4.394384,-0.81091 0.36498,-0.0964 0.666273,-0.17101 0.66954,-0.16589 0.01026,0.0161 0.176697,3.88391 0.175574,4.08027 l -0.0011,0.18686 -0.556962,0.23509 c -3.113358,1.31414 -7.269386,1.99755 -11.47865,1.88753 z m -7.320955,-27.75579 0.01553,-7.29547 0.115639,-0.43441 c 0.332271,-1.2482 1.018197,-2.03696 2.075115,-2.38621 0.377561,-0.12477 0.484959,-0.13674 1.25612,-0.14 0.944431,-0.004 1.240509,0.0512 1.865392,0.34788 1.022088,0.48523 1.634034,1.42624 1.94835,2.99604 0.07665,0.3828 0.08935,0.93985 0.106918,4.68903 l 0.01994,4.25463 h 2.729089 2.729089 l 0.01823,-4.30574 c 0.01792,-4.23218 0.02018,-4.3143 0.13189,-4.80721 0.330762,-1.4594 0.905435,-2.32389 1.853873,-2.7888 0.666754,-0.32683 0.966792,-0.38871 1.884951,-0.38871 1.22516,0 1.835869,0.21267 2.47937,0.8634 0.425447,0.43023 0.6759,0.89792 0.881841,1.64674 l 0.138739,0.50446 0.01471,7.26992 0.01471,7.26992 h 2.760906 2.76091 l -0.0204,-7.47435 c -0.0215,-7.88144 -0.0182,-7.76831 -0.26657,-9.00863 -0.66279,-3.30945 -2.8623,-5.67648 -5.865205,-6.31191 -1.842779,-0.38995 -3.993102,-0.16412 -5.479884,0.5755 -0.843164,0.41944 -1.784706,1.20551 -2.360845,1.97102 -0.156226,0.20758 -0.59391,0.89847 -0.972632,1.53533 -0.378722,0.63685 -0.693398,1.1631 -0.69928,1.16944 -0.0059,0.006 -0.325133,-0.51488 -0.709447,-1.15827 -0.823816,-1.37917 -1.158577,-1.83813 -1.746899,-2.39503 -1.184126,-1.12087 -2.577244,-1.70192 -4.460493,-1.86039 -0.835755,-0.0703 -1.87186,-0.007 -2.623779,0.16024 -2.887427,0.6424 -4.970447,2.76411 -5.746906,5.85364 -0.361638,1.43895 -0.347,1.06372 -0.367384,9.41796 l -0.01836,7.52545 h 2.760626 2.760627 z"
         id="path992" />
    </g>
  </g>
</svg>
