<?xml version="1.0" encoding="UTF-8" standalone="no"?>
<!-- Created with Inkscape (http://www.inkscape.org/) -->

<svg
   width="34.3871mm"
   height="29.09535mm"
   viewBox="0 0 34.3871 29.09535"
   version="1.1"
   id="svg5"
   xml:space="preserve"
   inkscape:version="1.2.1 (9c6d41e410, 2022-07-14)"
   xmlns:inkscape="http://www.inkscape.org/namespaces/inkscape"
   xmlns:sodipodi="http://sodipodi.sourceforge.net/DTD/sodipodi-0.dtd"
   xmlns="http://www.w3.org/2000/svg"
   xmlns:svg="http://www.w3.org/2000/svg"><sodipodi:namedview
     id="namedview7"
     pagecolor="#ffffff"
     bordercolor="#666666"
     borderopacity="1.0"
     inkscape:showpageshadow="2"
     inkscape:pageopacity="0.0"
     inkscape:pagecheckerboard="0"
     inkscape:deskcolor="#d1d1d1"
     inkscape:document-units="mm"
     showgrid="false"
     inkscape:zoom="0.73851712"
     inkscape:cx="-5.416259"
     inkscape:cy="32.497554"
     inkscape:window-width="1920"
     inkscape:window-height="1009"
     inkscape:window-x="-8"
     inkscape:window-y="-8"
     inkscape:window-maximized="1"
     inkscape:current-layer="layer1" /><defs
     id="defs2" /><g
     inkscape:label="Layer 1"
     inkscape:groupmode="layer"
     id="layer1"
     transform="translate(-85.265289,-140.21752)"><path
       style="fill:#000000;stroke-width:0.264583"
       d="m 100.65441,168.64697 c -4.415291,-1.50396 -7.694331,-4.75604 -9.345111,-9.2683 -0.50215,-1.37256 -0.58739,-2.26195 -0.68901,-7.18875 l -0.11596,-5.6224 h -2.61952 -2.61952 v -3.175 -3.175 h 8.86355 8.863541 v 3.175 3.175 h -2.91042 -2.910421 l 0.004,4.82865 c 0.004,5.4273 0.2935,7.17754 1.64749,9.97403 1.219001,2.51769 4.458731,5.71254 7.079851,6.98177 l 1.98438,0.9609 -2.64584,-0.002 c -2.12341,-0.002 -3.0291,-0.13291 -4.58692,-0.66355 z m 7.5699,-1.28743 c -2.07232,-0.73142 -4.82611,-2.60868 -5.9989,-4.08945 -0.45129,-0.56981 -0.82053,-1.10209 -0.82053,-1.18287 0,-0.0808 0.44648,0.0448 0.99218,0.27898 1.21746,0.52253 4.07505,0.58037 5.43562,0.11003 0.55211,-0.19086 1.53541,-0.75277 2.1851,-1.2487 l 1.18126,-0.90167 h 3.70188 c 2.92451,0 3.70187,0.0747 3.70187,0.35585 0,1.28958 -3.9707,5.70905 -6.10982,6.80035 -1.30847,0.66753 -2.09409,0.64498 -4.26866,-0.12252 z m 4.29307,-16.18297 c 0,-0.22993 -0.68461,-1.10204 -1.52136,-1.93802 -1.4423,-1.441 -2.6561,-2.10303 -4.63021,-2.52543 l -0.7276,-0.15568 v -3.16996 -3.16996 h 1.01031 c 2.46521,0 6.10638,1.64926 8.46768,3.8354 1.88672,1.74677 3.07633,3.51983 3.91879,5.84076 l 0.6174,1.70093 h -3.56751 c -3.075,0 -3.5675,-0.0577 -3.5675,-0.41804 z"
       id="path125" /></g></svg>
